<?xml version="1.0" encoding="utf-8"?>
<!-- Generator: Adobe Illustrator 21.0.2, SVG Export Plug-In . SVG Version: 6.00 Build 0)  -->
<svg version="1.1" id="Layer_1" xmlns="http://www.w3.org/2000/svg" xmlns:xlink="http://www.w3.org/1999/xlink" x="0px" y="0px"
	 viewBox="0 0 800 800" style="enable-background:new 0 0 800 800;" xml:space="preserve">
<style type="text/css">
	.st0{fill:#FAFAFA;}
</style>
<g>
	<path class="st0" d="M692,53.1c-6.9-20.6-21.5-36.6-39.6-45.6c-18-9-39.6-11.2-75.2,0.7L172.9,143c-35.6,11.9-51.6,26.5-60.6,44.6
		c-9.1,18-11.2,39.5-4.3,60.2c6.9,20.6,21.5,36.6,39.6,45.6c18,9,39.6,11.2,75.2-0.7l404.3-134.8c35.6-11.8,51.6-26.5,60.6-44.6
		C696.8,95.3,698.9,73.8,692,53.1z"/>
	<path class="st0" d="M692,302.6c-6.9-20.6-21.5-36.6-39.6-45.6c-18-9-39.6-11.2-75.2,0.7L172.9,392.5
		c-35.6,11.9-51.6,26.5-60.6,44.6c-9.1,18-11.2,39.5-4.3,60.2c6.9,20.6,21.5,36.6,39.6,45.6c18,9,39.6,11.2,75.2-0.7l404.3-134.7
		c35.6-11.9,51.6-26.5,60.6-44.7C696.8,344.8,698.9,323.3,692,302.6z"/>
	<path class="st0" d="M692,552.2c-6.9-20.6-21.5-36.6-39.6-45.6c-18-9-39.6-11.2-75.2,0.7L172.9,642.1
		c-35.6,11.9-51.6,26.5-60.6,44.6c-9.1,18-11.2,39.5-4.3,60.2c6.9,20.6,21.5,36.6,39.6,45.6c18,9,39.6,11.2,75.2-0.7L627.1,657
		c35.6-11.8,51.6-26.5,60.6-44.6C696.8,594.4,698.9,572.9,692,552.2z"/>
</g>
</svg>
