<svg width="1980" height="1980" xmlns="http://www.w3.org/2000/svg" xmlns:xlink="http://www.w3.org/1999/xlink" xml:space="preserve" overflow="hidden"><defs><clipPath id="clip0"><rect x="2281" y="317" width="1980" height="1980"/></clipPath><clipPath id="clip1"><rect x="2528" y="554" width="1536" height="1526"/></clipPath><clipPath id="clip2"><rect x="2528" y="554" width="1536" height="1526"/></clipPath><clipPath id="clip3"><rect x="2528" y="554" width="1536" height="1526"/></clipPath></defs><g clip-path="url(#clip0)" transform="translate(-2281 -317)"><g clip-path="url(#clip1)"><path d="M2551.37 312.417 2554.61 450.936 2559.22 609.825 2563.83 738.123 2569.97 876.52 2576.12 988.724 2582.26 1082.25 2588.41 1161.85 2596.09 1246.54 2603.77 1318.64 2611.45 1380.97 2619.13 1435.57 2626.81 1483.87 2636.02 1535.03 2645.24 1580.12 2654.46 1620.17 2663.67 1655.99 2672.89 1688.23 2683.64 1721.98 2694.39 1752.16 2705.14 1779.29 2715.9 1803.79 2726.65 1825.98 2738.94 1848.86 2751.23 1869.46 2763.52 1888.03 2775.8 1904.83 2788.09 1920.06 2801.91 1935.53 2815.74 1949.44 2829.56 1961.97 2844.92 1974.45 2860.28 1985.6 2875.65 1995.57 2892.54 2005.33 2910.97 2014.71 2929.4 2022.94 2949.37 2030.71 2970.88 2037.94 2993.92 2044.55 3018.5 2050.5 3044.61 2055.78 3073.79 2060.61 3106.05 2064.88 3141.38 2068.52 3181.31 2071.61 3228.93 2074.23 3285.77 2076.28 3356.42 2077.77 3453.19 2078.72 3616.02 2079.15 4063 2079.2 4063 2079.2" stroke="#2E7EBC" stroke-width="3.66667" stroke-linecap="square" stroke-linejoin="round" fill="none"/></g><g><path d="M2528.5 2079.2 2530.04 1580.9 2531.57 1517.55 2534.64 1450.14 2537.72 1410.57 2540.79 1383.58 2543.86 1363.97 2546.93 1349.26 2550 1338.07 2553.08 1329.55 2556.15 1323.11 2559.22 1318.36 2562.29 1315 2565.36 1312.8 2568.44 1311.59 2571.51 1311.23 2576.12 1312.03 2580.73 1314.18 2585.33 1317.46 2591.48 1323.28 2599.16 1332.4 2606.84 1343.14 2617.59 1360.19 2629.88 1381.75 2646.77 1413.71 2672.89 1465.68 2722.04 1563.75 2748.15 1613.38 2771.19 1654.99 2792.7 1691.74 2812.67 1723.98 2832.64 1754.35 2852.61 1782.85 2872.57 1809.5 2892.54 1834.34 2910.97 1855.71 2929.4 1875.63 2947.84 1894.15 2966.27 1911.34 2986.24 1928.52 3006.21 1944.28 3026.18 1958.71 3046.15 1971.88 3066.11 1983.86 3087.62 1995.54 3109.12 2006.03 3130.63 2015.43 3153.67 2024.38 3176.71 2032.28 3201.28 2039.65 3227.39 2046.41 3255.05 2052.5 3284.23 2057.89 3316.49 2062.76 3350.28 2066.84 3388.68 2070.42 3431.69 2073.36 3480.84 2075.67 3540.75 2077.4 3617.55 2078.53 3732.75 2079.1 4049.18 2079.2 4063 2079.2 4063 2079.2" stroke="#3C8CC3" stroke-width="3.66667" stroke-linecap="square" stroke-linejoin="round" fill="none"/></g><g><path d="M2528.5 2079.2 2531.57 2050.94 2537.72 2007.85 2545.4 1962.15 2554.61 1914.48 2563.83 1872.6 2573.05 1835.43 2582.26 1802.3 2591.48 1772.73 2600.69 1746.36 2609.91 1722.9 2619.13 1702.09 2628.34 1683.73 2637.56 1667.62 2646.77 1653.59 2655.99 1641.51 2665.21 1631.22 2674.42 1622.59 2683.64 1615.53 2692.86 1609.91 2702.07 1605.63 2711.29 1602.6 2720.5 1600.72 2729.72 1599.93 2738.94 1600.13 2748.15 1601.25 2758.9 1603.64 2769.66 1607.08 2781.94 1612.2 2794.23 1618.43 2808.06 1626.63 2823.42 1637.01 2840.31 1649.76 2858.75 1664.95 2880.25 1684 2907.9 1709.97 2949.37 1750.57 3013.89 1813.67 3047.68 1845.2 3076.86 1871.07 3104.52 1894.2 3130.63 1914.7 3155.2 1932.71 3179.78 1949.47 3204.35 1964.95 3228.93 1979.16 3253.51 1992.13 3278.09 2003.88 3302.66 2014.46 3327.24 2023.93 3351.81 2032.35 3377.93 2040.22 3404.04 2047.06 3431.69 2053.27 3460.87 2058.79 3491.6 2063.58 3525.39 2067.78 3562.25 2071.31 3602.19 2074.09 3648.27 2076.28 3703.57 2077.84 3775.76 2078.8 3892.5 2079.18 4063 2079.2 4063 2079.2" stroke="#4D99CA" stroke-width="3.66667" stroke-linecap="square" stroke-linejoin="round" fill="none"/></g><g><path d="M2528.5 2079.2 2531.57 2078.26 2536.18 2075.39 2542.32 2069.94 2550 2061.32 2559.22 2049.11 2569.97 2033.01 2583.8 2010.4 2603.77 1975.63 2654.46 1886.55 2674.42 1853.87 2691.32 1828.01 2708.22 1804.03 2723.58 1784 2738.94 1765.75 2752.76 1750.89 2766.59 1737.53 2780.41 1725.67 2792.7 1716.39 2804.99 1708.28 2817.27 1701.33 2829.56 1695.51 2841.85 1690.79 2854.14 1687.15 2866.43 1684.54 2878.72 1682.94 2891.01 1682.3 2904.83 1682.67 2918.65 1684.15 2932.48 1686.68 2946.3 1690.18 2961.66 1695.14 2977.02 1701.13 2993.92 1708.82 3012.35 1718.38 3032.32 1729.94 3053.82 1743.59 3078.4 1760.43 3107.59 1781.74 3145.99 1811.12 3250.44 1891.72 3284.23 1916.18 3314.95 1937.17 3342.6 1954.88 3370.25 1971.37 3396.36 1985.75 3422.47 1998.94 3447.05 2010.25 3471.63 2020.5 3496.2 2029.7 3522.31 2038.37 3548.43 2045.95 3574.54 2052.48 3602.19 2058.36 3631.37 2063.49 3662.1 2067.83 3694.35 2071.37 3729.68 2074.22 3769.62 2076.42 3817.23 2077.97 3878.68 2078.88 3980.06 2079.2 4063 2079.2 4063 2079.2" stroke="#5FA6D1" stroke-width="3.66667" stroke-linecap="square" stroke-linejoin="round" fill="none"/></g><g><path d="M2528.5 2079.2 2540.79 2078.71 2551.54 2077.28 2562.29 2074.84 2573.05 2071.38 2583.8 2066.92 2596.09 2060.67 2608.37 2053.27 2622.2 2043.68 2636.02 2032.89 2651.38 2019.66 2669.82 2002.36 2691.32 1980.63 2718.97 1951.06 2808.06 1854.51 2831.1 1831.57 2852.61 1811.57 2872.57 1794.43 2891.01 1779.96 2907.9 1767.93 2924.8 1757.14 2941.69 1747.63 2957.06 1740.13 2972.41 1733.75 2987.77 1728.47 3003.14 1724.31 3018.5 1721.26 3033.85 1719.3 3049.22 1718.42 3064.58 1718.6 3079.94 1719.79 3095.3 1721.98 3112.19 1725.48 3129.09 1730.06 3145.99 1735.68 3164.42 1742.9 3184.39 1751.91 3204.35 1762.04 3225.86 1774.05 3250.44 1788.98 3278.09 1807.03 3311.88 1830.41 3361.03 1865.84 3430.15 1915.55 3467.02 1940.75 3497.74 1960.56 3526.92 1978.14 3553.04 1992.73 3579.15 2006.14 3603.73 2017.64 3628.3 2028.02 3652.88 2037.27 3677.45 2045.41 3702.03 2052.47 3726.61 2058.49 3752.72 2063.81 3778.83 2068.12 3806.48 2071.69 3837.2 2074.61 3871 2076.77 3910.93 2078.24 3961.62 2079.02 4055.32 2079.2 4063 2079.2 4063 2079.2" stroke="#72B2D8" stroke-width="3.66667" stroke-linecap="square" stroke-linejoin="round" fill="none"/></g><g><path d="M2528.5 2079.2 2563.83 2078.72 2585.33 2077.39 2603.77 2075.29 2622.2 2072.12 2639.09 2068.21 2655.99 2063.28 2672.89 2057.31 2689.78 2050.29 2708.22 2041.47 2726.65 2031.49 2746.62 2019.43 2766.59 2006.21 2789.63 1989.66 2814.2 1970.74 2844.92 1945.71 2889.47 1907.9 2946.3 1859.88 2977.02 1835.3 3003.14 1815.72 3026.18 1799.72 3047.68 1786.03 3067.65 1774.54 3086.08 1765.05 3104.52 1756.7 3121.41 1750.11 3138.31 1744.56 3155.2 1740.08 3172.1 1736.7 3189 1734.42 3205.89 1733.25 3222.79 1733.2 3239.69 1734.23 3256.58 1736.35 3273.48 1739.52 3290.37 1743.72 3307.27 1748.91 3325.7 1755.65 3344.14 1763.45 3364.11 1773.03 3385.61 1784.54 3408.65 1798.09 3433.23 1813.76 3460.87 1832.6 3494.67 1856.93 3548.43 1897.09 3603.73 1938.03 3637.52 1961.81 3666.7 1981.1 3692.81 1997.16 3717.39 2011.08 3740.43 2022.98 3763.47 2033.69 3784.98 2042.57 3806.48 2050.38 3827.99 2057.11 3849.49 2062.78 3871 2067.45 3894.04 2071.4 3918.61 2074.52 3944.73 2076.79 3973.91 2078.27 4010.77 2079.05 4063 2079.2 4063 2079.2" stroke="#89BEDC" stroke-width="3.66667" stroke-linecap="square" stroke-linejoin="round" fill="none"/></g><g><path d="M2528.5 2079.2 2602.23 2078.72 2636.02 2077.45 2663.67 2075.44 2688.25 2072.7 2711.29 2069.15 2734.33 2064.56 2755.83 2059.25 2777.34 2052.91 2798.84 2045.49 2820.35 2036.99 2841.85 2027.4 2864.89 2015.98 2887.93 2003.4 2912.51 1988.82 2938.62 1972.12 2967.81 1952.24 3003.14 1926.84 3056.89 1886.7 3113.73 1844.62 3145.99 1821.99 3173.64 1803.83 3198.21 1788.92 3219.72 1777 3239.69 1767 3259.65 1758.14 3278.09 1751.03 3296.52 1745.04 3313.41 1740.56 3330.31 1737.11 3347.21 1734.7 3364.11 1733.37 3381 1733.13 3397.89 1734 3414.79 1735.97 3431.69 1739.05 3448.59 1743.23 3465.48 1748.49 3482.38 1754.8 3500.81 1762.85 3519.24 1772.06 3537.68 1782.36 3557.65 1794.68 3579.15 1809.16 3602.19 1825.92 3628.3 1846.18 3659.02 1871.35 3708.18 1913.16 3758.86 1955.87 3788.05 1979.16 3812.63 1997.54 3834.13 2012.45 3854.1 2025.15 3874.07 2036.63 3892.5 2046.03 3910.93 2054.25 3927.83 2060.7 3944.73 2066.1 3961.62 2070.47 3978.52 2073.84 3996.95 2076.46 4016.92 2078.19 4039.96 2079.06 4063 2079.2 4063 2079.2" stroke="#9FCAE1" stroke-width="3.66667" stroke-linecap="square" stroke-linejoin="round" fill="none"/></g><g><path d="M2528.5 2079.2 2645.24 2078.71 2688.25 2077.45 2722.04 2075.44 2751.23 2072.67 2777.34 2069.18 2801.91 2064.84 2824.95 2059.73 2846.46 2053.94 2867.96 2047.08 2889.47 2039.1 2909.44 2030.63 2929.4 2021.08 2949.37 2010.44 2969.34 1998.69 2989.31 1985.82 3010.81 1970.73 3032.32 1954.39 3055.36 1935.53 3078.4 1915.36 3102.98 1892.52 3130.63 1865.37 3161.35 1833.73 3199.75 1792.64 3298.06 1686.67 3325.7 1658.7 3350.28 1635.27 3371.78 1616.16 3391.75 1599.81 3410.19 1586.07 3427.08 1574.75 3442.44 1565.61 3457.8 1557.64 3471.63 1551.54 3485.45 1546.51 3499.27 1542.6 3511.56 1540.09 3523.85 1538.54 3536.14 1537.95 3548.43 1538.37 3560.72 1539.81 3573.01 1542.29 3585.29 1545.81 3597.58 1550.41 3609.87 1556.07 3622.16 1562.8 3634.44 1570.61 3648.27 1580.65 3662.1 1592.03 3675.92 1604.71 3691.28 1620.28 3706.64 1637.35 3723.54 1657.79 3740.43 1679.83 3758.86 1705.54 3778.83 1735.12 3801.87 1771.06 3832.6 1821.03 3897.11 1926.53 3918.61 1959.42 3937.05 1985.72 3952.4 2005.91 3966.23 2022.47 3978.52 2035.72 3990.81 2047.44 4001.56 2056.32 4012.31 2063.82 4021.53 2069.1 4030.74 2073.28 4039.96 2076.33 4049.18 2078.26 4058.39 2079.12 4063 2079.2 4063 2079.2" stroke="#B0D2E7" stroke-width="3.66667" stroke-linecap="square" stroke-linejoin="round" fill="none"/></g><g><path d="M2528.5 2079.2 2703.61 2078.71 2755.83 2077.5 2795.77 2075.58 2829.56 2072.93 2858.75 2069.65 2884.86 2065.74 2909.44 2061.07 2932.48 2055.69 2953.98 2049.69 2975.49 2042.64 2995.45 2035.09 3015.42 2026.48 3035.39 2016.75 3055.36 2005.83 3075.33 1993.67 3093.76 1981.29 3112.19 1967.78 3132.16 1951.82 3152.13 1934.46 3172.1 1915.7 3192.07 1895.53 3212.04 1873.95 3233.54 1849.19 3255.05 1822.89 3278.09 1793.09 3302.66 1759.61 3328.77 1722.32 3359.5 1676.59 3397.89 1617.44 3483.91 1484.27 3510.03 1446.04 3531.53 1416.18 3551.5 1390.16 3568.39 1369.71 3583.76 1352.56 3599.12 1336.95 3612.94 1324.37 3625.23 1314.46 3637.52 1305.84 3648.27 1299.44 3659.02 1294.16 3669.77 1290.06 3678.99 1287.53 3688.21 1285.95 3697.42 1285.37 3706.64 1285.8 3715.85 1287.3 3725.07 1289.89 3734.29 1293.61 3743.51 1298.48 3752.72 1304.54 3761.94 1311.82 3771.15 1320.34 3780.37 1330.13 3791.12 1343.18 3801.87 1358 3812.63 1374.63 3823.38 1393.07 3835.67 1416.38 3847.96 1442.07 3860.24 1470.1 3874.07 1504.41 3887.89 1541.55 3903.25 1585.96 3920.15 1638.33 3938.58 1699.09 3961.62 1779.06 4013.85 1962.13 4026.14 2001.02 4036.89 2031.66 4044.57 2050.74 4050.71 2063.69 4055.32 2071.58 4059.93 2077.33 4063 2079.2 4063 2079.2" stroke="#C2D9EE" stroke-width="3.66667" stroke-linecap="square" stroke-linejoin="round" fill="none"/></g><g><path d="M2528.5 2079.2 2780.41 2078.71 2843.39 2077.54 2889.47 2075.72 2927.87 2073.22 2961.66 2070 2990.85 2066.21 3018.5 2061.58 3043.07 2056.46 3066.11 2050.66 3087.62 2044.26 3109.12 2036.8 3129.09 2028.83 3149.06 2019.76 3167.49 2010.32 3185.92 1999.78 3204.35 1988.08 3222.79 1975.12 3241.22 1960.85 3259.65 1945.18 3278.09 1928.05 3294.98 1911.01 3313.41 1890.89 3331.85 1869.14 3350.28 1845.69 3368.71 1820.52 3387.15 1793.57 3405.58 1764.85 3424.01 1734.32 3443.98 1699.24 3463.94 1662.08 3485.45 1619.81 3506.95 1575.29 3530 1525.28 3554.57 1469.54 3583.76 1400.67 3620.62 1310.78 3691.28 1137.77 3715.85 1080.74 3735.82 1037.04 3752.72 1002.57 3766.55 976.5 3778.83 955.229 3791.12 936.02 3801.87 921.125 3811.09 909.937 3820.31 900.348 3827.99 893.684 3835.67 888.312 3843.35 884.33 3849.49 882.207 3855.64 881.085 3861.78 881.016 3867.92 882.056 3874.07 884.261 3880.21 887.689 3886.35 892.405 3892.5 898.478 3898.65 905.967 3904.79 914.951 3910.93 925.497 3918.61 941.002 3926.29 959.24 3933.97 980.373 3941.65 1004.59 3949.33 1032.08 3957.02 1063.07 3964.69 1097.76 3973.91 1144.66 3983.13 1197.75 3992.34 1257.57 4001.56 1324.77 4010.77 1400.11 4019.99 1484.53 4029.21 1579.28 4038.42 1686.15 4046.11 1786.56 4053.78 1900.82 4059.93 2008.55 4063 2079.2 4063 2079.2" stroke="#CEE0F2" stroke-width="6.875" stroke-linecap="square" stroke-linejoin="round" fill="none"/></g><g clip-path="url(#clip2)"><path d="M2528.5 2079.2 2884.86 2078.71 2961.66 2077.52 3015.42 2075.71 3058.43 2073.29 3095.3 2070.22 3127.56 2066.53 3156.74 2062.19 3182.85 2057.31 3207.43 2051.72 3230.47 2045.43 3251.97 2038.54 3271.94 2031.12 3291.91 2022.62 3310.34 2013.7 3328.77 2003.66 3347.21 1992.37 3364.11 1980.84 3381 1968.07 3397.89 1953.97 3414.79 1938.44 3430.15 1922.98 3445.52 1906.16 3460.87 1887.88 3476.23 1868.07 3491.6 1846.62 3506.95 1823.44 3522.31 1798.42 3537.68 1771.47 3553.04 1742.47 3568.39 1711.32 3583.76 1677.92 3599.12 1642.16 3614.48 1603.91 3629.84 1563.09 3645.2 1519.57 3662.1 1468.48 3678.99 1413.86 3695.89 1355.61 3712.78 1293.59 3729.68 1227.73 3746.58 1157.92 3765.01 1077.21 3783.44 991.708 3801.87 901.462 3821.84 798.456 3843.35 681.749 3866.39 550.744 3894.04 387.145 3906.42 312.417M4058.86 312.417 4059.93 394.244 4061.46 584.319 4063 2079.2 4063 2079.2" stroke="#D9E7F5" stroke-width="6.875" stroke-linecap="square" stroke-linejoin="round" fill="none"/></g><g clip-path="url(#clip3)"><path d="M2528.5 2079.2 3044.61 2078.7 3136.77 2077.54 3199.75 2075.78 3248.9 2073.42 3290.37 2070.41 3325.7 2066.85 3356.42 2062.75 3384.07 2058.09 3410.19 2052.63 3433.23 2046.79 3454.73 2040.33 3474.7 2033.31 3493.13 2025.83 3511.56 2017.26 3528.46 2008.32 3545.35 1998.21 3560.72 1987.88 3576.08 1976.35 3591.44 1963.48 3605.26 1950.62 3619.09 1936.44 3632.91 1920.8 3646.73 1903.54 3660.56 1884.5 3672.85 1865.94 3685.14 1845.67 3697.42 1823.55 3709.71 1799.39 3722 1773 3734.29 1744.14 3746.58 1712.58 3758.86 1678.03 3771.15 1640.16 3783.44 1598.63 3795.73 1553.01 3806.48 1509.37 3817.23 1461.88 3827.99 1410.11 3838.74 1353.59 3849.49 1291.76 3860.24 1223.97 3871 1149.46 3881.75 1067.32 3892.5 976.477 3903.25 875.603 3912.47 779.935 3921.69 674.466 3930.9 557.661 3940.12 427.617 3947.49 312.417 3947.49 312.417" stroke="#E3EEF9" stroke-width="6.875" stroke-linecap="square" stroke-linejoin="round" fill="none"/></g><text fill="#181818" font-family="Ericsson Hilda Light,Ericsson Hilda Light_MSFontService,sans-serif" font-weight="300" font-size="367" transform="matrix(1 0 0 1 2857.25 1422)">FAI</text><text fill="#181818" font-family="Ericsson Hilda,Ericsson Hilda_MSFontService,sans-serif" font-weight="400" font-size="110" transform="matrix(1 0 0 1 2878.71 1564)">Foundational AI</text></g></svg>