<svg width="1980" height="1980" xmlns="http://www.w3.org/2000/svg" xmlns:xlink="http://www.w3.org/1999/xlink" xml:space="preserve" overflow="hidden"><g transform="translate(-59 -248)"><g><path d="M558.584 1666.5 598.695 1851.99" stroke="#000000" stroke-width="5.19434" stroke-linejoin="round" stroke-opacity="0.4" fill="none" transform="matrix(1 0 0 1.00001 -122.536 99.5155)"/></g><g><path d="M558.584 1666.5 566.957 970.454" stroke="#000000" stroke-width="5.19434" stroke-linejoin="round" stroke-opacity="0.4" fill="none" transform="matrix(1 0 0 1.00001 -122.536 99.5155)"/></g><g><path d="M558.584 1666.5 699.964 1220.08" stroke="#000000" stroke-width="5.19434" stroke-linejoin="round" stroke-opacity="0.4" fill="none" transform="matrix(1 0 0 1.00001 -122.536 99.5155)"/></g><g><path d="M558.584 1666.5 492.493 1177.28" stroke="#000000" stroke-width="5.19434" stroke-linejoin="round" stroke-opacity="0.4" fill="none" transform="matrix(1 0 0 1.00001 -122.536 99.5155)"/></g><g><path d="M558.584 1666.5 918.033 1847.17" stroke="#000000" stroke-width="5.19434" stroke-linejoin="round" stroke-opacity="0.4" fill="none" transform="matrix(1 0 0 1.00001 -122.536 99.5155)"/></g><g><path d="M558.584 1666.5 594.373 1360.68" stroke="#000000" stroke-width="5.19434" stroke-linejoin="round" stroke-opacity="0.4" fill="none" transform="matrix(1 0 0 1.00001 -122.536 99.5155)"/></g><g><path d="M1783.5 1123.02 1436.09 1574.86" stroke="#000000" stroke-width="5.19434" stroke-linejoin="round" stroke-opacity="0.4" fill="none" transform="matrix(1 0 0 1.00001 -122.536 99.5155)"/></g><g><path d="M1783.5 1123.02 1917.1 1085.17" stroke="#000000" stroke-width="5.19434" stroke-linejoin="round" stroke-opacity="0.4" fill="none" transform="matrix(1 0 0 1.00001 -122.536 99.5155)"/></g><g><path d="M1783.5 1123.02 1473.15 411.849" stroke="#000000" stroke-width="5.19434" stroke-linejoin="round" stroke-opacity="0.4" fill="none" transform="matrix(1 0 0 1.00001 -122.536 99.5155)"/></g><g><path d="M1783.5 1123.02 1370.36 777.053" stroke="#000000" stroke-width="5.19434" stroke-linejoin="round" stroke-opacity="0.4" fill="none" transform="matrix(1 0 0 1.00001 -122.536 99.5155)"/></g><g><path d="M1783.5 1123.02 1875.28 546.45" stroke="#000000" stroke-width="5.19434" stroke-linejoin="round" stroke-opacity="0.4" fill="none" transform="matrix(1 0 0 1.00001 -122.536 99.5155)"/></g><g><path d="M1074.17 634.11 1473.15 411.849" stroke="#000000" stroke-width="5.19434" stroke-linejoin="round" stroke-opacity="0.4" fill="none" transform="matrix(1 0 0 1.00001 -122.536 99.5155)"/></g><g><path d="M1074.17 634.11 1370.36 777.053" stroke="#000000" stroke-width="5.19434" stroke-linejoin="round" stroke-opacity="0.4" fill="none" transform="matrix(1 0 0 1.00001 -122.536 99.5155)"/></g><g><path d="M1074.17 634.11 566.957 970.454" stroke="#000000" stroke-width="5.19434" stroke-linejoin="round" stroke-opacity="0.4" fill="none" transform="matrix(1 0 0 1.00001 -122.536 99.5155)"/></g><g><path d="M1074.17 634.11 699.964 1220.08" stroke="#000000" stroke-width="5.19434" stroke-linejoin="round" stroke-opacity="0.4" fill="none" transform="matrix(1 0 0 1.00001 -122.536 99.5155)"/></g><g><path d="M1074.17 634.11 583.335 654.155" stroke="#000000" stroke-width="5.19434" stroke-linejoin="round" stroke-opacity="0.4" fill="none" transform="matrix(1 0 0 1.00001 -122.536 99.5155)"/></g><g><path d="M1436.09 1574.86 1917.1 1085.17" stroke="#000000" stroke-width="5.19434" stroke-linejoin="round" stroke-opacity="0.4" fill="none" transform="matrix(1 0 0 1.00001 -122.536 99.5155)"/></g><g><path d="M1436.09 1574.86 918.033 1847.17" stroke="#000000" stroke-width="5.19434" stroke-linejoin="round" stroke-opacity="0.4" fill="none" transform="matrix(1 0 0 1.00001 -122.536 99.5155)"/></g><g><path d="M598.695 1851.99 699.964 1220.08" stroke="#000000" stroke-width="5.19434" stroke-linejoin="round" stroke-opacity="0.4" fill="none" transform="matrix(1 0 0 1.00001 -122.536 99.5155)"/></g><g><path d="M598.695 1851.99 492.493 1177.28" stroke="#000000" stroke-width="5.19434" stroke-linejoin="round" stroke-opacity="0.4" fill="none" transform="matrix(1 0 0 1.00001 -122.536 99.5155)"/></g><g><path d="M598.695 1851.99 918.033 1847.17" stroke="#000000" stroke-width="5.19434" stroke-linejoin="round" stroke-opacity="0.4" fill="none" transform="matrix(1 0 0 1.00001 -122.536 99.5155)"/></g><g><path d="M598.695 1851.99 594.373 1360.68" stroke="#000000" stroke-width="5.19434" stroke-linejoin="round" stroke-opacity="0.4" fill="none" transform="matrix(1 0 0 1.00001 -122.536 99.5155)"/></g><g><path d="M1917.1 1085.17 1370.36 777.053" stroke="#000000" stroke-width="5.19434" stroke-linejoin="round" stroke-opacity="0.4" fill="none" transform="matrix(1 0 0 1.00001 -122.536 99.5155)"/></g><g><path d="M1917.1 1085.17 1875.28 546.45" stroke="#000000" stroke-width="5.19434" stroke-linejoin="round" stroke-opacity="0.4" fill="none" transform="matrix(1 0 0 1.00001 -122.536 99.5155)"/></g><g><path d="M1473.15 411.849 1370.36 777.053" stroke="#000000" stroke-width="5.19434" stroke-linejoin="round" stroke-opacity="0.4" fill="none" transform="matrix(1 0 0 1.00001 -122.536 99.5155)"/></g><g><path d="M1473.15 411.849 1875.28 546.45" stroke="#000000" stroke-width="5.19434" stroke-linejoin="round" stroke-opacity="0.4" fill="none" transform="matrix(1 0 0 1.00001 -122.536 99.5155)"/></g><g><path d="M1370.36 777.053 1875.28 546.45" stroke="#000000" stroke-width="5.19434" stroke-linejoin="round" stroke-opacity="0.4" fill="none" transform="matrix(1 0 0 1.00001 -122.536 99.5155)"/></g><g><path d="M566.957 970.454 699.964 1220.08" stroke="#000000" stroke-width="5.19434" stroke-linejoin="round" stroke-opacity="0.4" fill="none" transform="matrix(1 0 0 1.00001 -122.536 99.5155)"/></g><g><path d="M566.957 970.454 583.335 654.155" stroke="#000000" stroke-width="5.19434" stroke-linejoin="round" stroke-opacity="0.4" fill="none" transform="matrix(1 0 0 1.00001 -122.536 99.5155)"/></g><g><path d="M566.957 970.454 492.493 1177.28" stroke="#000000" stroke-width="5.19434" stroke-linejoin="round" stroke-opacity="0.4" fill="none" transform="matrix(1 0 0 1.00001 -122.536 99.5155)"/></g><g><path d="M566.957 970.454 594.373 1360.68" stroke="#000000" stroke-width="5.19434" stroke-linejoin="round" stroke-opacity="0.4" fill="none" transform="matrix(1 0 0 1.00001 -122.536 99.5155)"/></g><g><path d="M699.964 1220.08 583.335 654.155" stroke="#000000" stroke-width="5.19434" stroke-linejoin="round" stroke-opacity="0.4" fill="none" transform="matrix(1 0 0 1.00001 -122.536 99.5155)"/></g><g><path d="M699.964 1220.08 492.493 1177.28" stroke="#000000" stroke-width="5.19434" stroke-linejoin="round" stroke-opacity="0.4" fill="none" transform="matrix(1 0 0 1.00001 -122.536 99.5155)"/></g><g><path d="M699.964 1220.08 918.033 1847.17" stroke="#000000" stroke-width="5.19434" stroke-linejoin="round" stroke-opacity="0.4" fill="none" transform="matrix(1 0 0 1.00001 -122.536 99.5155)"/></g><g><path d="M699.964 1220.08 594.373 1360.68" stroke="#000000" stroke-width="5.19434" stroke-linejoin="round" stroke-opacity="0.4" fill="none" transform="matrix(1 0 0 1.00001 -122.536 99.5155)"/></g><g><path d="M583.335 654.155 492.493 1177.28" stroke="#000000" stroke-width="5.19434" stroke-linejoin="round" stroke-opacity="0.4" fill="none" transform="matrix(1 0 0 1.00001 -122.536 99.5155)"/></g><g><path d="M583.335 654.155 594.373 1360.68" stroke="#000000" stroke-width="5.19434" stroke-linejoin="round" stroke-opacity="0.4" fill="none" transform="matrix(1 0 0 1.00001 -122.536 99.5155)"/></g><g><path d="M492.493 1177.28 594.373 1360.68" stroke="#000000" stroke-width="5.19434" stroke-linejoin="round" stroke-opacity="0.4" fill="none" transform="matrix(1 0 0 1.00001 -122.536 99.5155)"/></g><g><path d="M918.033 1847.17 594.373 1360.68" stroke="#000000" stroke-width="5.19434" stroke-linejoin="round" stroke-opacity="0.4" fill="none" transform="matrix(1 0 0 1.00001 -122.536 99.5155)"/></g><g><path d="M0 25.9717C6.8878 25.9717 13.4944 23.2352 18.3648 18.3648 23.2352 13.4944 25.9717 6.8878 25.9717 0 25.9717-6.8878 23.2352-13.4944 18.3648-18.3648 13.4944-23.2352 6.8878-25.9717 0-25.9717-6.8878-25.9717-13.4944-23.2352-18.3648-18.3648-23.2352-13.4944-25.9717-6.8878-25.9717 0-25.9717 6.8878-23.2352 13.4944-18.3648 18.3648-13.4944 23.2352-6.8878 25.9717 0 25.9717Z" stroke="#67000D" stroke-width="5.19434" stroke-linejoin="round" fill="#67000D" transform="matrix(1 0 0 1.00001 1247.82 876.577)"/></g><g><path d="M0 25.9717C6.8878 25.9717 13.4944 23.2352 18.3648 18.3648 23.2352 13.4944 25.9717 6.8878 25.9717 0 25.9717-6.8878 23.2352-13.4944 18.3648-18.3648 13.4944-23.2352 6.8878-25.9717 0-25.9717-6.8878-25.9717-13.4944-23.2352-18.3648-18.3648-23.2352-13.4944-25.9717-6.8878-25.9717 0-25.9717 6.8878-23.2352 13.4944-18.3648 18.3648-13.4944 23.2352-6.8878 25.9717 0 25.9717Z" stroke="#E32F27" stroke-width="5.19434" stroke-linejoin="round" fill="#E32F27" transform="matrix(1 0 0 1.00001 1660.97 1222.55)"/></g><g><path d="M0 25.9717C6.8878 25.9717 13.4944 23.2352 18.3648 18.3648 23.2352 13.4944 25.9717 6.8878 25.9717 0 25.9717-6.8878 23.2352-13.4944 18.3648-18.3648 13.4944-23.2352 6.8878-25.9717 0-25.9717-6.8878-25.9717-13.4944-23.2352-18.3648-18.3648-23.2352-13.4944-25.9717-6.8878-25.9717 0-25.9717 6.8878-23.2352 13.4944-18.3648 18.3648-13.4944 23.2352-6.8878 25.9717 0 25.9717Z" stroke="#E32F27" stroke-width="5.19434" stroke-linejoin="round" fill="#E32F27" transform="matrix(1 0 0 1.00001 951.639 733.633)"/></g><g><path d="M0 25.9717C6.8878 25.9717 13.4944 23.2352 18.3648 18.3648 23.2352 13.4944 25.9717 6.8878 25.9717 0 25.9717-6.8878 23.2352-13.4944 18.3648-18.3648 13.4944-23.2352 6.8878-25.9717 0-25.9717-6.8878-25.9717-13.4944-23.2352-18.3648-18.3648-23.2352-13.4944-25.9717-6.8878-25.9717 0-25.9717 6.8878-23.2352 13.4944-18.3648 18.3648-13.4944 23.2352-6.8878 25.9717 0 25.9717Z" stroke="#E32F27" stroke-width="5.19434" stroke-linejoin="round" fill="#E32F27" transform="matrix(1 0 0 1.00001 1794.57 1184.7)"/></g><g><path d="M0 25.9717C6.8878 25.9717 13.4944 23.2352 18.3648 18.3648 23.2352 13.4944 25.9717 6.8878 25.9717 0 25.9717-6.8878 23.2352-13.4944 18.3648-18.3648 13.4944-23.2352 6.8878-25.9717 0-25.9717-6.8878-25.9717-13.4944-23.2352-18.3648-18.3648-23.2352-13.4944-25.9717-6.8878-25.9717 0-25.9717 6.8878-23.2352 13.4944-18.3648 18.3648-13.4944 23.2352-6.8878 25.9717 0 25.9717Z" stroke="#E32F27" stroke-width="5.19434" stroke-linejoin="round" fill="#E32F27" transform="matrix(1 0 0 1.00001 1350.61 511.369)"/></g><g><path d="M0 25.9717C6.8878 25.9717 13.4944 23.2352 18.3648 18.3648 23.2352 13.4944 25.9717 6.8878 25.9717 0 25.9717-6.8878 23.2352-13.4944 18.3648-18.3648 13.4944-23.2352 6.8878-25.9717 0-25.9717-6.8878-25.9717-13.4944-23.2352-18.3648-18.3648-23.2352-13.4944-25.9717-6.8878-25.9717 0-25.9717 6.8878-23.2352 13.4944-18.3648 18.3648-13.4944 23.2352-6.8878 25.9717 0 25.9717Z" stroke="#E32F27" stroke-width="5.19434" stroke-linejoin="round" fill="#E32F27" transform="matrix(1 0 0 1.00001 1752.74 645.972)"/></g><g><path d="M0 25.9717C6.8878 25.9717 13.4944 23.2352 18.3648 18.3648 23.2352 13.4944 25.9717 6.8878 25.9717 0 25.9717-6.8878 23.2352-13.4944 18.3648-18.3648 13.4944-23.2352 6.8878-25.9717 0-25.9717-6.8878-25.9717-13.4944-23.2352-18.3648-18.3648-23.2352-13.4944-25.9717-6.8878-25.9717 0-25.9717 6.8878-23.2352 13.4944-18.3648 18.3648-13.4944 23.2352-6.8878 25.9717 0 25.9717Z" stroke="#FCA082" stroke-width="5.19434" stroke-linejoin="round" fill="#FCA082" transform="matrix(1 0 0 1.00001 1313.55 1674.4)"/></g><g><path d="M0 25.9717C6.8878 25.9717 13.4944 23.2352 18.3648 18.3648 23.2352 13.4944 25.9717 6.8878 25.9717 0 25.9717-6.8878 23.2352-13.4944 18.3648-18.3648 13.4944-23.2352 6.8878-25.9717 0-25.9717-6.8878-25.9717-13.4944-23.2352-18.3648-18.3648-23.2352-13.4944-25.9717-6.8878-25.9717 0-25.9717 6.8878-23.2352 13.4944-18.3648 18.3648-13.4944 23.2352-6.8878 25.9717 0 25.9717Z" stroke="#FCA082" stroke-width="5.19434" stroke-linejoin="round" fill="#FCA082" transform="matrix(1 0 0 1.00001 444.422 1069.98)"/></g><g><path d="M0 25.9717C6.8878 25.9717 13.4944 23.2352 18.3648 18.3648 23.2352 13.4944 25.9717 6.8878 25.9717 0 25.9717-6.8878 23.2352-13.4944 18.3648-18.3648 13.4944-23.2352 6.8878-25.9717 0-25.9717-6.8878-25.9717-13.4944-23.2352-18.3648-18.3648-23.2352-13.4944-25.9717-6.8878-25.9717 0-25.9717 6.8878-23.2352 13.4944-18.3648 18.3648-13.4944 23.2352-6.8878 25.9717 0 25.9717Z" stroke="#FCA082" stroke-width="5.19434" stroke-linejoin="round" fill="#FCA082" transform="matrix(1 0 0 1.00001 577.428 1319.61)"/></g><g><path d="M0 25.9717C6.8878 25.9717 13.4944 23.2352 18.3648 18.3648 23.2352 13.4944 25.9717 6.8878 25.9717 0 25.9717-6.8878 23.2352-13.4944 18.3648-18.3648 13.4944-23.2352 6.8878-25.9717 0-25.9717-6.8878-25.9717-13.4944-23.2352-18.3648-18.3648-23.2352-13.4944-25.9717-6.8878-25.9717 0-25.9717 6.8878-23.2352 13.4944-18.3648 18.3648-13.4944 23.2352-6.8878 25.9717 0 25.9717Z" stroke="#FCA082" stroke-width="5.19434" stroke-linejoin="round" fill="#FCA082" transform="matrix(1 0 0 1.00001 460.799 753.678)"/></g><g><path d="M0 25.9717C6.8878 25.9717 13.4944 23.2352 18.3648 18.3648 23.2352 13.4944 25.9717 6.8878 25.9717 0 25.9717-6.8878 23.2352-13.4944 18.3648-18.3648 13.4944-23.2352 6.8878-25.9717 0-25.9717-6.8878-25.9717-13.4944-23.2352-18.3648-18.3648-23.2352-13.4944-25.9717-6.8878-25.9717 0-25.9717 6.8878-23.2352 13.4944-18.3648 18.3648-13.4944 23.2352-6.8878 25.9717 0 25.9717Z" stroke="#FFF5F0" stroke-width="5.19434" stroke-linejoin="round" fill="#FFF5F0" transform="matrix(1 0 0 1.00001 795.497 1946.7)"/></g><g><path d="M0 25.9717C6.8878 25.9717 13.4944 23.2352 18.3648 18.3648 23.2352 13.4944 25.9717 6.8878 25.9717 0 25.9717-6.8878 23.2352-13.4944 18.3648-18.3648 13.4944-23.2352 6.8878-25.9717 0-25.9717-6.8878-25.9717-13.4944-23.2352-18.3648-18.3648-23.2352-13.4944-25.9717-6.8878-25.9717 0-25.9717 6.8878-23.2352 13.4944-18.3648 18.3648-13.4944 23.2352-6.8878 25.9717 0 25.9717Z" stroke="#FFF5F0" stroke-width="5.19434" stroke-linejoin="round" fill="#FFF5F0" transform="matrix(1 0 0 1.00001 436.048 1766.04)"/></g><g><path d="M0 25.9717C6.8878 25.9717 13.4944 23.2352 18.3648 18.3648 23.2352 13.4944 25.9717 6.8878 25.9717 0 25.9717-6.8878 23.2352-13.4944 18.3648-18.3648 13.4944-23.2352 6.8878-25.9717 0-25.9717-6.8878-25.9717-13.4944-23.2352-18.3648-18.3648-23.2352-13.4944-25.9717-6.8878-25.9717 0-25.9717 6.8878-23.2352 13.4944-18.3648 18.3648-13.4944 23.2352-6.8878 25.9717 0 25.9717Z" stroke="#FFF5F0" stroke-width="5.19434" stroke-linejoin="round" fill="#FFF5F0" transform="matrix(1 0 0 1.00001 369.957 1276.81)"/></g><g><path d="M0 25.9717C6.8878 25.9717 13.4944 23.2352 18.3648 18.3648 23.2352 13.4944 25.9717 6.8878 25.9717 0 25.9717-6.8878 23.2352-13.4944 18.3648-18.3648 13.4944-23.2352 6.8878-25.9717 0-25.9717-6.8878-25.9717-13.4944-23.2352-18.3648-18.3648-23.2352-13.4944-25.9717-6.8878-25.9717 0-25.9717 6.8878-23.2352 13.4944-18.3648 18.3648-13.4944 23.2352-6.8878 25.9717 0 25.9717Z" stroke="#FFF5F0" stroke-width="5.19434" stroke-linejoin="round" fill="#FFF5F0" transform="matrix(1 0 0 1.00001 471.837 1460.22)"/></g><g><path d="M0 25.9717C6.8878 25.9717 13.4944 23.2352 18.3648 18.3648 23.2352 13.4944 25.9717 6.8878 25.9717 0 25.9717-6.8878 23.2352-13.4944 18.3648-18.3648 13.4944-23.2352 6.8878-25.9717 0-25.9717-6.8878-25.9717-13.4944-23.2352-18.3648-18.3648-23.2352-13.4944-25.9717-6.8878-25.9717 0-25.9717 6.8878-23.2352 13.4944-18.3648 18.3648-13.4944 23.2352-6.8878 25.9717 0 25.9717Z" stroke="#FFF5F0" stroke-width="5.19434" stroke-linejoin="round" fill="#FFF5F0" transform="matrix(1 0 0 1.00001 476.159 1951.52)"/></g><text fill="#3C2121" font-family="Ericsson Hilda Light,Ericsson Hilda Light_MSFontService,sans-serif" font-weight="300" font-size="367" transform="matrix(1 0 0 1 774.922 1377)">GAI</text><text fill="#3C2121" font-family="Ericsson Hilda,Ericsson Hilda_MSFontService,sans-serif" font-weight="400" font-size="108" transform="matrix(1 0 0 1 786.431 1492)">Geometric AI</text></g></svg>