<svg width="1980" height="1980" xmlns="http://www.w3.org/2000/svg" xmlns:xlink="http://www.w3.org/1999/xlink" xml:space="preserve" overflow="hidden"><defs><clipPath id="clip0"><rect x="95" y="185" width="1980" height="1980"/></clipPath><clipPath id="clip1"><rect x="342" y="422" width="1535" height="1526"/></clipPath><clipPath id="clip2"><rect x="342" y="422" width="1535" height="1526"/></clipPath></defs><g clip-path="url(#clip0)" transform="translate(-95 -185)"><g clip-path="url(#clip1)"><path d="" stroke="#F7FCF5" stroke-width="3.66667" stroke-linejoin="round" fill="none"/></g><g><path d="M978 1287.44 974.686 1285 962.5 1274.52 958.318 1269.6 947.411 1254.2 947 1253.47 940.48 1238.8 935.348 1223.4 931.926 1208 931.5 1204.16 930.446 1192.6 930.446 1177.2 931.5 1165.64 931.926 1161.8 935.348 1146.4 940.48 1131 947 1116.33 947.411 1115.6 958.318 1100.2 962.5 1095.28 974.686 1084.8 978 1082.36 993.5 1075.02 1009 1071.61 1024.5 1071.96 1040 1075.87 1055.5 1083.11 1058.02 1084.8 1071 1094.91 1076.32 1100.2 1086.5 1112.34 1088.78 1115.6 1097.41 1131 1102 1141.92 1103.64 1146.4 1107.4 1161.8 1109.28 1177.2 1109.28 1192.6 1107.4 1208 1103.64 1223.4 1102 1227.88 1097.41 1238.8 1088.78 1254.2 1086.5 1257.46 1076.32 1269.6 1071 1274.89 1058.02 1285 1055.5 1286.69 1040 1293.93 1024.5 1297.84 1009 1298.19 993.5 1294.78 978 1287.44" stroke="#EAF7E6" stroke-width="3.66667" stroke-linejoin="round" fill="none"/></g><g><path d="M947 1550.69 931.5 1544.79 916 1537.4 900.5 1528.54 882.378 1516 863.895 1500.6 848.143 1485.2 834.402 1469.8 822.191 1454.4 807.5 1433 792.854 1408.2 785.006 1392.8 776.5 1374.49 765.544 1346.6 760.294 1331.2 751.721 1300.4 745.178 1269.6 740.822 1238.8 738.402 1208 737.918 1177.2 739.37 1146.4 742.758 1115.6 745.5 1098.49 751.721 1069.4 760.294 1038.6 765.544 1023.2 776.5 995.31 777.763 992.4 792 963.19 792.854 961.6 807.5 936.798 811.441 930.8 823 914.305 838.5 895.129 854 878.525 869.5 864.169 885 851.785 905.354 838.4 916 832.403 936.631 823 947 819.111 962.5 814.551 978 811.219 993.5 809.077 1009 808.083 1024.5 808.185 1040 809.325 1055.5 811.439 1071 814.459 1086.5 818.311 1102.23 823 1117.5 828.438 1141.82 838.4 1164 848.912 1179.5 856.962 1210.5 874.78 1226.37 884.6 1257 905.276 1272.5 916.361 1303.5 940.384 1319 953.301 1334.5 966.967 1350 981.572 1365.5 997.391 1381 1014.81 1388 1023.2 1399.63 1038.6 1412 1057.4 1419.01 1069.4 1427.5 1086.22 1433.45 1100.2 1438.92 1115.6 1443.28 1131 1446.45 1146.4 1448.57 1161.8 1449.62 1177.2 1449.62 1192.6 1448.57 1208 1446.45 1223.4 1443 1239.83 1438.92 1254.2 1433.45 1269.6 1426.88 1285 1419.01 1300.4 1409.97 1315.8 1396.5 1335.39 1381 1354.99 1375.08 1362 1360.87 1377.4 1345.39 1392.8 1319 1416.5 1303.5 1429.42 1288 1441.72 1257 1464.52 1241.5 1475.18 1226 1485.43 1195 1504.2 1173.58 1516 1148.5 1528.38 1133 1535.21 1117.5 1541.36 1102 1546.88 1086.5 1551.49 1071 1555.34 1055.5 1558.36 1040 1560.47 1024.5 1561.61 1009 1561.72 993.5 1560.72 978 1558.58 962.5 1555.25 947 1550.69 947 1550.69" stroke="#D8F0D2" stroke-width="3.66667" stroke-linejoin="round" fill="none"/></g><g><path d="M962.5 1700.99 961.59 1700.8 947 1697.68 931.5 1693.45 916 1688.3 908.622 1685.4 900.5 1682.11 885 1674.87 875.775 1670 869.5 1666.58 854 1657.15 850.185 1654.6 838.5 1646.52 828.776 1639.2 823 1634.7 810.018 1623.8 807.5 1621.61 793.298 1608.4 792 1607.15 778.181 1593 776.5 1591.21 764.356 1577.6 761 1573.69 751.594 1562.2 745.5 1554.45 739.733 1546.8 730 1533.34 728.649 1531.4 718.376 1516 714.5 1509.91 708.752 1500.6 699.7 1485.2 699 1483.95 691.309 1469.8 683.5 1454.64 683.38 1454.4 676.057 1439 669.165 1423.6 668 1420.82 662.804 1408.2 656.887 1392.8 652.5 1380.5 651.41 1377.4 646.418 1362 641.841 1346.6 637.681 1331.2 637 1328.4 633.975 1315.8 630.688 1300.4 627.813 1285 625.348 1269.6 623.294 1254.2 621.65 1238.8 621.5 1236.92 620.429 1223.4 619.615 1208 619.208 1192.6 619.208 1177.2 619.615 1161.8 620.429 1146.4 621.5 1132.88 621.65 1131 623.294 1115.6 625.348 1100.2 627.813 1084.8 630.688 1069.4 633.975 1054 637 1041.4 637.681 1038.6 641.841 1023.2 646.418 1007.8 651.41 992.4 652.5 989.297 656.887 977 662.804 961.6 668 948.976 669.165 946.2 676.057 930.8 683.38 915.4 683.5 915.161 691.309 900 699 885.853 699.7 884.6 708.752 869.2 714.5 859.888 718.376 853.8 728.649 838.4 730 836.464 739.733 823 745.5 815.354 751.594 807.6 761 796.112 764.356 792.2 776.5 778.587 778.181 776.8 792 762.652 793.298 761.4 807.5 748.19 810.018 746 823 735.098 828.776 730.6 838.5 723.28 850.185 715.2 854 712.647 869.5 703.223 875.775 699.8 885 694.926 900.5 687.689 908.622 684.4 916 681.503 931.5 676.35 947 672.121 961.59 669 962.5 668.811 978 666.459 993.5 664.947 1009 664.246 1024.5 664.318 1040 665.122 1055.5 666.615 1071 668.746 1072.45 669 1086.5 671.54 1102 674.893 1117.5 678.74 1133 683.026 1137.56 684.4 1148.5 687.798 1164 692.95 1179.5 698.386 1183.37 699.8 1195 704.19 1210.5 710.231 1222.95 715.2 1226 716.456 1241.5 722.957 1257 729.531 1259.5 730.6 1272.5 736.341 1288 743.212 1294.28 746 1303.5 750.239 1319 757.366 1327.77 761.4 1334.5 764.61 1350 772.014 1359.98 776.8 1365.5 779.548 1381 787.319 1390.62 792.2 1396.5 795.298 1412 803.607 1419.29 807.6 1427.5 812.287 1443 821.384 1445.66 823 1458.5 831.135 1469.52 838.4 1474 841.491 1489.5 852.674 1490.98 853.8 1505 864.945 1510.06 869.2 1520.5 878.404 1527.12 884.6 1536 893.337 1542.37 900 1551.5 910.092 1556.01 915.4 1567 929.096 1568.28 930.8 1579.19 946.2 1582.5 951.193 1588.97 961.6 1597.91 977 1598 977.158 1605.7 992.4 1612.88 1007.8 1613.5 1009.24 1619.1 1023.2 1624.71 1038.6 1629 1051.67 1629.72 1054 1633.93 1069.4 1637.62 1084.8 1640.79 1100.2 1643.42 1115.6 1644.5 1123.47 1645.47 1131 1646.96 1146.4 1647.95 1161.8 1648.44 1177.2 1648.44 1192.6 1647.95 1208 1646.96 1223.4 1645.47 1238.8 1644.5 1246.33 1643.42 1254.2 1640.79 1269.6 1637.62 1285 1633.93 1300.4 1629.72 1315.8 1629 1318.13 1624.71 1331.2 1619.1 1346.6 1613.5 1360.56 1612.88 1362 1605.7 1377.4 1598 1392.64 1597.91 1392.8 1588.97 1408.2 1582.5 1418.61 1579.19 1423.6 1568.28 1439 1567 1440.7 1556.01 1454.4 1551.5 1459.71 1542.37 1469.8 1536 1476.46 1527.12 1485.2 1520.5 1491.4 1510.06 1500.6 1505 1504.85 1490.98 1516 1489.5 1517.13 1474 1528.31 1469.52 1531.4 1458.5 1538.67 1445.66 1546.8 1443 1548.42 1427.5 1557.51 1419.29 1562.2 1412 1566.19 1396.5 1574.5 1390.62 1577.6 1381 1582.48 1365.5 1590.25 1359.98 1593 1350 1597.79 1334.5 1605.19 1327.77 1608.4 1319 1612.43 1303.5 1619.56 1294.28 1623.8 1288 1626.59 1272.5 1633.46 1259.5 1639.2 1257 1640.27 1241.5 1646.84 1226 1653.34 1222.95 1654.6 1210.5 1659.57 1195 1665.61 1183.37 1670 1179.5 1671.41 1164 1676.85 1148.5 1682 1137.56 1685.4 1133 1686.77 1117.5 1691.06 1102 1694.91 1086.5 1698.26 1072.45 1700.8 1071 1701.05 1055.5 1703.19 1040 1704.68 1024.5 1705.48 1009 1705.55 993.5 1704.85 978 1703.34 962.5 1700.99Z" stroke="#C1E6BA" stroke-width="3.66667" stroke-linejoin="round" fill="none"/></g><g><path d="M947 1811.06 935.775 1808.6 931.5 1807.64 916 1803.39 900.5 1798.37 886.671 1793.2 885 1792.56 869.5 1785.84 854 1778.35 852.969 1777.8 838.5 1769.9 825.878 1762.4 823 1760.64 807.5 1750.44 802.611 1747 792 1739.32 781.942 1731.6 776.5 1727.3 763.167 1716.2 761 1714.34 745.921 1700.8 745.5 1700.41 730 1685.47 729.934 1685.4 714.991 1670 714.5 1669.48 700.945 1654.6 699 1652.39 687.673 1639.2 683.5 1634.17 675.088 1623.8 668 1614.75 663.121 1608.4 652.5 1594.07 651.722 1593 640.905 1577.6 637 1571.82 630.586 1562.2 621.5 1548.01 620.734 1546.8 611.378 1531.4 606 1522.15 602.455 1516 593.976 1500.6 590.5 1493.97 585.926 1485.2 578.295 1469.8 575 1462.78 571.08 1454.4 564.277 1439 559.5 1427.51 557.878 1423.6 551.889 1408.2 546.298 1392.8 544 1385.98 541.111 1377.4 536.324 1362 531.937 1346.6 528.5 1333.33 527.948 1331.2 524.36 1315.8 521.17 1300.4 518.379 1285 515.987 1269.6 513.993 1254.2 513 1244.61 512.398 1238.8 511.202 1223.4 510.405 1208 510.006 1192.6 510.006 1177.2 510.405 1161.8 511.202 1146.4 512.398 1131 513 1125.19 513.993 1115.6 515.987 1100.2 518.379 1084.8 521.17 1069.4 524.36 1054 527.948 1038.6 528.5 1036.47 531.937 1023.2 536.324 1007.8 541.111 992.4 544 983.819 546.298 977 551.889 961.6 557.878 946.2 559.5 942.291 564.277 930.8 571.08 915.4 575 907.02 578.295 900 585.926 884.6 590.5 875.83 593.976 869.2 602.455 853.8 606 847.654 611.378 838.4 620.734 823 621.5 821.791 630.586 807.6 637 797.982 640.905 792.2 651.722 776.8 652.5 775.734 663.121 761.4 668 755.05 675.088 746 683.5 735.629 687.673 730.6 699 717.405 700.945 715.2 714.5 700.323 714.991 699.8 729.934 684.4 730 684.334 745.5 669.39 745.921 669 761 655.457 763.167 653.6 776.5 642.498 781.942 638.2 792 630.476 802.611 622.8 807.5 619.359 823 609.156 825.878 607.4 838.5 599.898 852.969 592 854 591.451 869.5 583.96 885 577.24 886.671 576.6 900.5 571.435 916 566.414 931.5 562.162 935.775 561.2 947 558.735 962.5 556.066 978 554.116 993.5 552.862 1009 552.28 1024.5 552.34 1040 553.007 1055.5 554.245 1071 556.012 1086.5 558.268 1102 560.966 1103.17 561.2 1117.5 564.135 1133 567.671 1148.5 571.522 1164 575.644 1167.41 576.6 1179.5 580.079 1195 584.729 1210.5 589.531 1218.28 592 1226 594.512 1241.5 599.643 1257 604.833 1264.61 607.4 1272.5 610.131 1288 615.516 1303.5 620.909 1308.93 622.8 1319 626.4 1334.5 631.945 1350 637.498 1351.95 638.2 1365.5 643.211 1381 648.984 1393.25 653.6 1396.5 654.859 1412 660.968 1427.5 667.213 1431.81 669 1443 673.775 1458.5 680.62 1466.72 684.4 1474 687.848 1489.5 695.537 1497.67 699.8 1505 703.748 1520.5 712.569 1524.86 715.2 1536 722.145 1548.75 730.6 1551.5 732.483 1567 743.806 1569.81 746 1582.5 756.237 1588.49 761.4 1598 769.889 1605.25 776.8 1613.5 784.962 1620.36 792.2 1629 801.68 1634.07 807.6 1644.5 820.302 1646.58 823 1657.99 838.4 1660 841.243 1668.38 853.8 1675.5 864.979 1678.04 869.2 1686.86 884.6 1691 892.206 1695.01 900 1702.53 915.4 1706.5 924.014 1709.47 930.8 1715.81 946.2 1721.75 961.6 1722 962.294 1727.04 977 1731.94 992.4 1736.46 1007.8 1737.5 1011.65 1740.47 1023.2 1744.06 1038.6 1747.3 1054 1750.18 1069.4 1752.69 1084.8 1753 1086.98 1754.77 1100.2 1756.49 1115.6 1757.87 1131 1758.9 1146.4 1759.59 1161.8 1759.93 1177.2 1759.93 1192.6 1759.59 1208 1758.9 1223.4 1757.87 1238.8 1756.49 1254.2 1754.77 1269.6 1753 1282.82 1752.69 1285 1750.18 1300.4 1747.3 1315.8 1744.06 1331.2 1740.47 1346.6 1737.5 1358.15 1736.46 1362 1731.94 1377.4 1727.04 1392.8 1722 1407.51 1721.75 1408.2 1715.81 1423.6 1709.47 1439 1706.5 1445.79 1702.53 1454.4 1695.01 1469.8 1691 1477.59 1686.86 1485.2 1678.04 1500.6 1675.5 1504.82 1668.38 1516 1660 1528.56 1657.99 1531.4 1646.58 1546.8 1644.5 1549.5 1634.07 1562.2 1629 1568.12 1620.36 1577.6 1613.5 1584.84 1605.25 1593 1598 1599.91 1588.49 1608.4 1582.5 1613.56 1569.81 1623.8 1567 1625.99 1551.5 1637.32 1548.75 1639.2 1536 1647.65 1524.86 1654.6 1520.5 1657.23 1505 1666.05 1497.67 1670 1489.5 1674.26 1474 1681.95 1466.72 1685.4 1458.5 1689.18 1443 1696.02 1431.81 1700.8 1427.5 1702.59 1412 1708.83 1396.5 1714.94 1393.25 1716.2 1381 1720.82 1365.5 1726.59 1351.95 1731.6 1350 1732.3 1334.5 1737.85 1319 1743.4 1308.93 1747 1303.5 1748.89 1288 1754.28 1272.5 1759.67 1264.61 1762.4 1257 1764.97 1241.5 1770.16 1226 1775.29 1218.28 1777.8 1210.5 1780.27 1195 1785.07 1179.5 1789.72 1167.41 1793.2 1164 1794.16 1148.5 1798.28 1133 1802.13 1117.5 1805.67 1103.17 1808.6 1102 1808.83 1086.5 1811.53 1071 1813.79 1055.5 1815.55 1040 1816.79 1024.5 1817.46 1009 1817.52 993.5 1816.94 978 1815.68 962.5 1813.73 947 1811.06Z" stroke="#A4DA9E" stroke-width="3.66667" stroke-linejoin="round" fill="none"/></g><g><path d="M931.5 1903.87 919.218 1901 916 1900.23 900.5 1895.87 885 1890.83 870.766 1885.6 869.5 1885.12 854 1878.63 838.5 1871.49 835.936 1870.2 823 1863.56 807.5 1854.98 807.194 1854.8 792 1845.6 782.359 1839.4 776.5 1835.54 761 1824.79 759.916 1824 745.5 1813.26 739.491 1808.6 730 1801.05 720.478 1793.2 714.5 1788.14 702.642 1777.8 699 1774.54 685.8 1762.4 683.5 1760.23 669.811 1747 668 1745.2 654.563 1731.6 652.5 1729.45 639.969 1716.2 637 1712.97 625.964 1700.8 621.5 1695.73 612.496 1685.4 606 1677.71 599.528 1670 590.5 1658.89 587.03 1654.6 575 1639.22 574.982 1639.2 563.377 1623.8 559.5 1618.47 552.188 1608.4 544 1596.7 541.41 1593 531.039 1577.6 528.5 1573.68 521.07 1562.2 513 1549.21 511.501 1546.8 502.331 1531.4 497.5 1522.92 493.561 1516 485.189 1500.6 482 1494.44 477.219 1485.2 469.648 1469.8 466.5 1463.04 462.482 1454.4 455.717 1439 451 1427.59 449.355 1423.6 443.401 1408.2 437.843 1392.8 435.5 1385.81 432.694 1377.4 427.95 1362 423.601 1346.6 420 1332.57 419.649 1331.2 416.111 1315.8 412.966 1300.4 410.214 1285 407.855 1269.6 405.889 1254.2 404.5 1240.59 404.318 1238.8 403.148 1223.4 402.368 1208 401.978 1192.6 401.978 1177.2 402.368 1161.8 403.148 1146.4 404.318 1131 404.5 1129.21 405.889 1115.6 407.855 1100.2 410.214 1084.8 412.966 1069.4 416.111 1054 419.649 1038.6 420 1037.22 423.601 1023.2 427.95 1007.8 432.694 992.4 435.5 983.994 437.843 977 443.401 961.6 449.355 946.2 451 942.21 455.717 930.8 462.482 915.4 466.5 906.76 469.648 900 477.219 884.6 482 875.36 485.189 869.2 493.561 853.8 497.5 846.883 502.331 838.4 511.501 823 513 820.588 521.07 807.6 528.5 796.122 531.039 792.2 541.41 776.8 544 773.096 552.188 761.4 559.5 751.329 563.377 746 574.982 730.6 575 730.577 587.03 715.2 590.5 710.908 599.528 699.8 606 692.086 612.496 684.4 621.5 674.071 625.964 669 637 656.833 639.969 653.6 652.5 640.347 654.563 638.2 668 624.599 669.811 622.8 683.5 609.573 685.8 607.4 699 595.261 702.642 592 714.5 581.655 720.478 576.6 730 568.749 739.491 561.2 745.5 556.537 759.916 545.8 761 545.012 776.5 534.256 782.359 530.4 792 524.202 807.194 515 807.5 514.819 823 506.239 835.936 499.6 838.5 498.313 854 491.168 869.5 484.676 870.766 484.2 885 478.968 900.5 473.933 916 469.568 919.218 468.8 931.5 465.933 947 462.964 962.5 460.636 978 458.934 993.5 457.841 1009 457.333 1024.5 457.385 1040 457.967 1055.5 459.047 1071 460.589 1086.5 462.556 1102 464.91 1117.5 467.611 1123.62 468.8 1133 470.66 1148.5 474.009 1164 477.594 1179.5 481.375 1190.61 484.2 1195 485.342 1210.5 489.503 1226 493.764 1241.5 498.098 1246.81 499.6 1257 502.546 1272.5 507.059 1288 511.588 1299.66 515 1303.5 516.149 1319 520.79 1334.5 525.432 1350 530.081 1351.06 530.4 1365.5 534.851 1381 539.662 1396.5 544.528 1400.49 545.8 1412 549.563 1427.5 554.741 1443 560.066 1446.19 561.2 1458.5 565.685 1474 571.562 1486.69 576.6 1489.5 577.742 1505 584.378 1520.5 591.389 1521.77 592 1536 599.003 1551.5 607.115 1552.01 607.4 1567 615.982 1578.16 622.8 1582.5 625.522 1598 635.904 1601.21 638.2 1613.5 647.233 1621.62 653.6 1629 659.552 1640 669 1644.5 672.988 1656.62 684.4 1660 687.678 1671.77 699.8 1675.5 703.771 1685.65 715.2 1691 721.429 1698.46 730.6 1706.5 740.827 1710.36 746 1721.45 761.4 1722 762.188 1731.66 776.8 1737.5 785.981 1741.28 792.2 1750.27 807.6 1753 812.475 1758.64 823 1766.56 838.4 1768.5 842.352 1773.9 853.8 1780.83 869.2 1784 876.589 1787.3 884.6 1793.34 900 1799.06 915.4 1799.5 916.662 1804.28 930.8 1809.19 946.2 1813.78 961.6 1815 965.962 1817.98 977 1821.83 992.4 1825.39 1007.8 1828.65 1023.2 1830.5 1032.8 1831.58 1038.6 1834.17 1054 1836.48 1069.4 1838.49 1084.8 1840.22 1100.2 1841.66 1115.6 1842.81 1131 1843.67 1146.4 1844.24 1161.8 1844.53 1177.2 1844.53 1192.6 1844.24 1208 1843.67 1223.4 1842.81 1238.8 1841.66 1254.2 1840.22 1269.6 1838.49 1285 1836.48 1300.4 1834.17 1315.8 1831.58 1331.2 1830.5 1337 1828.65 1346.6 1825.39 1362 1821.83 1377.4 1817.98 1392.8 1815 1403.84 1813.78 1408.2 1809.19 1423.6 1804.28 1439 1799.5 1453.14 1799.06 1454.4 1793.34 1469.8 1787.3 1485.2 1784 1493.21 1780.83 1500.6 1773.9 1516 1768.5 1527.45 1766.56 1531.4 1758.64 1546.8 1753 1557.32 1750.27 1562.2 1741.28 1577.6 1737.5 1583.82 1731.66 1593 1722 1607.61 1721.45 1608.4 1710.36 1623.8 1706.5 1628.97 1698.46 1639.2 1691 1648.37 1685.65 1654.6 1675.5 1666.03 1671.77 1670 1660 1682.12 1656.62 1685.4 1644.5 1696.81 1640 1700.8 1629 1710.25 1621.62 1716.2 1613.5 1722.57 1601.21 1731.6 1598 1733.9 1582.5 1744.28 1578.16 1747 1567 1753.82 1552.01 1762.4 1551.5 1762.69 1536 1770.8 1521.77 1777.8 1520.5 1778.41 1505 1785.42 1489.5 1792.06 1486.69 1793.2 1474 1798.24 1458.5 1804.11 1446.19 1808.6 1443 1809.73 1427.5 1815.06 1412 1820.24 1400.49 1824 1396.5 1825.27 1381 1830.14 1365.5 1834.95 1351.06 1839.4 1350 1839.72 1334.5 1844.37 1319 1849.01 1303.5 1853.65 1299.66 1854.8 1288 1858.21 1272.5 1862.74 1257 1867.25 1246.81 1870.2 1241.5 1871.7 1226 1876.04 1210.5 1880.3 1195 1884.46 1190.61 1885.6 1179.5 1888.43 1164 1892.21 1148.5 1895.79 1133 1899.14 1123.62 1901 1117.5 1902.19 1102 1904.89 1086.5 1907.24 1071 1909.21 1055.5 1910.75 1040 1911.83 1024.5 1912.42 1009 1912.47 993.5 1911.96 978 1910.87 962.5 1909.16 947 1906.84 931.5 1903.87Z" stroke="#84CC83" stroke-width="3.66667" stroke-linejoin="round" fill="none"/></g><g><path d="M811.441 1947.2 792 1937 776.5 1928.19 757.268 1916.4 730 1898.2 699 1875.4 673.149 1854.8 652.5 1837.34 620.53 1808.6 588.536 1777.8 558.477 1747 528.5 1714.34 503.428 1685.4 478.314 1654.6 454.822 1623.8 432.991 1593 412.867 1562.2 394.468 1531.4 377.806 1500.6 362.875 1469.8 349.648 1439 342.5 1420.5M1877 1456.13 1867.45 1485.2 1856.12 1516 1843.45 1546.8 1829.32 1577.6 1813.55 1608.4 1795.96 1639.2 1784 1658.4 1765.61 1685.4 1753 1702.45 1737.5 1721.81 1722 1739.67 1706.5 1756.15 1691 1771.36 1675.5 1785.4 1660 1798.37 1644.5 1810.37 1625.13 1824 1600.76 1839.4 1582.5 1849.75 1567 1857.82 1536 1872.24 1502.74 1885.6 1474 1895.76 1443 1905.67 1396.5 1919.2 1319 1940 1291.59 1947.2M342.5 949.298 349.648 930.8 362.875 900 377.806 869.2 394.468 838.4 412.867 807.6 432.991 776.8 454.822 746 478.314 715.2 503.428 684.4 530.142 653.6 559.5 621.734 590.5 590.069 621.5 560.305 654.88 530.4 683.5 506.59 712.487 484.2 734.045 468.8 761 451.026 792 432.797 811.441 422.6M1291.59 422.6 1396.5 450.602 1427.5 459.48 1458.5 468.934 1489.5 479.393 1520.5 491.114 1551.5 504.516 1572.88 515 1598 528.747 1613.5 538.202 1629 548.388 1646.83 561.2 1666.28 576.6 1683.99 592 1700.23 607.4 1715.21 622.8 1729.11 638.2 1742.09 653.6 1754.26 669 1768.5 688.44 1786.43 715.2 1804.97 746 1821.61 776.8 1836.55 807.6 1849.96 838.4 1861.99 869.2 1872.64 900 1877 913.674 1877 913.674" stroke="#62BB6D" stroke-width="3.66667" stroke-linejoin="round" fill="none"/></g><g><path d="M676.057 1947.2 652.5 1929.75 615.954 1901 579.199 1870.2 544 1839.03 511.302 1808.6 479.808 1777.8 449.95 1747 420 1714.11 395.541 1685.4 371.173 1654.6 348.802 1623.8 342.5 1614.58M1877 1635.09 1866.7 1654.6 1849.19 1685.4 1839.78 1700.8 1829.99 1716.2 1808.73 1747 1797.31 1762.4 1784 1779.34 1768.5 1797.76 1753 1814.95 1737.5 1830.97 1722 1845.89 1706.5 1859.78 1691 1872.72 1674.34 1885.6 1652.41 1901 1629 1915.86 1613.5 1924.73 1598 1933.02 1568.28 1947.2M342.5 755.222 359.728 730.6 383.117 699.8 408.445 669 435.66 638.2 466.5 605.536 497.5 574.528 528.5 545.018 561.576 515 597.307 484.2 635.207 453.4 655.196 438 676.057 422.6M1568.28 422.6 1598 436.785 1613.5 445.068 1629 453.937 1652.41 468.8 1674.34 484.2 1675.5 485.053 1694.08 499.6 1712.14 515 1728.83 530.4 1744.33 545.8 1758.82 561.2 1772.41 576.6 1785.24 592 1799.5 610.269 1819.61 638.2 1839.78 669 1849.19 684.4 1866.7 715.2 1877 734.706 1877 734.706" stroke="#3FA85B" stroke-width="3.66667" stroke-linejoin="round" fill="none"/></g><g><path d="M564.277 1947.2 559.5 1943.45 544.701 1931.8 544 1931.24 528.5 1918.77 525.556 1916.4 513 1906.08 506.817 1901 497.5 1893.18 488.478 1885.6 482 1880.04 470.545 1870.2 466.5 1866.65 453.031 1854.8 451 1852.97 435.958 1839.4 435.5 1838.98 420 1824.6 419.354 1824 404.5 1809.81 403.246 1808.6 389 1794.54 387.655 1793.2 373.5 1778.73 372.603 1777.8 358.107 1762.4 358 1762.28 344.198 1747 342.5 1745.07M1877 1760.95 1876.05 1762.4 1865.67 1777.8 1861.5 1783.83 1854.86 1793.2 1846 1805.39 1843.6 1808.6 1831.8 1824 1830.5 1825.66 1819.38 1839.4 1815 1844.7 1806.35 1854.8 1799.5 1862.62 1792.63 1870.2 1784 1879.49 1778.11 1885.6 1768.5 1895.34 1762.69 1901 1753 1910.22 1746.22 1916.4 1737.5 1924.18 1728.55 1931.8 1722 1937.26 1709.47 1947.2M342.5 624.733 344.198 622.8 358 607.517 358.107 607.4 372.603 592 373.5 591.072 387.655 576.6 389 575.259 403.246 561.2 404.5 559.992 419.354 545.8 420 545.198 435.5 530.823 435.958 530.4 451 516.828 453.031 515 466.5 503.153 470.545 499.6 482 489.761 488.478 484.2 497.5 476.623 506.817 468.8 513 463.718 525.556 453.4 528.5 451.031 544 438.563 544.701 438 559.5 426.352 564.277 422.6M1709.47 422.6 1722 432.541 1728.55 438 1737.5 445.62 1746.22 453.4 1753 459.576 1762.69 468.8 1768.5 474.456 1778.11 484.2 1784 490.307 1792.63 499.6 1799.5 507.175 1806.35 515 1815 525.105 1819.38 530.4 1830.5 544.143 1831.8 545.8 1843.6 561.2 1846 564.415 1854.86 576.6 1861.5 585.966 1865.67 592 1876.05 607.4 1877 608.849" stroke="#289049" stroke-width="3.66667" stroke-linejoin="round" fill="none"/></g><g><path d="M455.717 1947.2 451 1943.47 436.256 1931.8 435.5 1931.19 420 1918.61 417.29 1916.4 404.5 1905.74 398.857 1901 389 1892.54 380.993 1885.6 373.5 1878.96 363.734 1870.2 358 1864.94 347.111 1854.8 342.5 1850.41M1877 1863.82 1872.02 1870.2 1861.5 1883.39 1859.69 1885.6 1846.81 1901 1846 1901.95 1833.31 1916.4 1830.5 1919.53 1819.16 1931.8 1815 1936.21 1804.28 1947.2M342.5 519.394 347.111 515 358 504.861 363.734 499.6 373.5 490.839 380.993 484.2 389 477.259 398.857 468.8 404.5 464.06 417.29 453.4 420 451.188 435.5 438.611 436.256 438 451 426.326 455.717 422.6M1804.28 422.6 1815 433.589 1819.16 438 1830.5 450.266 1833.31 453.4 1846 467.85 1846.81 468.8 1859.69 484.2 1861.5 486.414 1872.02 499.6 1877 505.981" stroke="#107A37" stroke-width="3.66667" stroke-linejoin="round" fill="none"/></g><g><path d="M349.648 1947.2 342.5 1941.22M342.5 428.577 349.648 422.6" stroke="#006227" stroke-width="3.66667" stroke-linejoin="round" fill="none"/></g><g clip-path="url(#clip2)"><path d="" stroke="#00441B" stroke-width="3.66667" stroke-linejoin="round" fill="none"/></g><text fill="#181818" font-family="Ericsson Hilda Light,Ericsson Hilda Light_MSFontService,sans-serif" font-weight="300" font-size="367" transform="matrix(1 0 0 1 618.787 1209)">MLR</text><text fill="#181818" font-family="Ericsson Hilda,Ericsson Hilda_MSFontService,sans-serif" font-weight="400" font-size="110" transform="matrix(1 0 0 1 650.18 1344)">Machine Learning </text><text fill="#181818" font-family="Ericsson Hilda,Ericsson Hilda_MSFontService,sans-serif" font-weight="400" font-size="110" transform="matrix(1 0 0 1 650.18 1476)">&amp;  Reasoning</text></g></svg>