<svg width="1534" height="1526" xmlns="http://www.w3.org/2000/svg" xmlns:xlink="http://www.w3.org/1999/xlink" xml:space="preserve" overflow="hidden"><g transform="translate(-2412 -476)"><g><path d="" stroke="#00441B" stroke-width="3.66278" stroke-linejoin="round" stroke-opacity="0.95" fill="none" transform="matrix(1.00073 0 0 1 2412 477.508)"/></g><g><path d="M634.829 863.926 631.514 861.486 619.344 851.02 615.164 846.102 604.272 830.719 603.86 829.991 597.345 815.335 592.221 799.951 588.801 784.568 588.375 780.735 587.322 769.184 587.322 753.8 588.375 742.249 588.801 738.417 592.221 723.033 597.345 707.649 603.86 692.994 604.272 692.266 615.164 676.882 619.344 671.965 631.514 661.498 634.829 659.058 650.308 651.723 665.793 648.321 681.277 648.669 696.762 652.575 712.246 659.813 714.769 661.498 727.726 671.598 733.042 676.882 743.21 689.015 745.49 692.266 754.112 707.649 758.695 718.56 760.334 723.033 764.088 738.417 765.965 753.8 765.965 769.184 764.088 784.568 760.334 799.951 758.695 804.424 754.112 815.335 745.49 830.719 743.21 833.969 733.042 846.102 727.726 851.386 714.769 861.486 712.246 863.171 696.762 870.409 681.277 874.315 665.793 874.663 650.308 871.261 634.829 863.926" stroke="#006227" stroke-width="3.66278" stroke-linejoin="round" stroke-opacity="0.95" fill="none" transform="matrix(1.00073 0 0 1 2412 477.508)"/></g><g><path d="M603.86 1126.9 588.375 1121 572.891 1113.62 557.407 1104.77 539.308 1092.24 520.843 1076.86 505.107 1061.47 491.38 1046.09 479.183 1030.71 464.509 1009.33 449.877 984.555 442.037 969.172 433.54 950.881 422.596 923.021 417.351 907.637 408.787 876.87 402.251 846.102 397.9 815.335 395.482 784.568 394.998 753.8 396.449 723.033 399.834 692.266 402.573 675.174 408.787 646.115 417.351 615.347 422.596 599.963 433.54 572.103 434.802 569.196 449.023 540.018 449.877 538.429 464.509 513.655 468.442 507.661 479.989 491.183 495.474 472.027 510.958 455.442 526.442 441.101 541.927 428.73 562.255 415.359 572.891 409.368 593.503 399.976 603.86 396.09 619.344 391.536 634.829 388.207 650.308 386.068 665.793 385.075 681.277 385.177 696.762 386.315 712.246 388.427 727.726 391.444 743.21 395.292 758.924 399.976 774.179 405.408 798.472 415.359 820.628 425.86 836.112 433.901 867.081 451.701 882.932 461.51 913.53 482.164 929.014 493.239 959.983 517.235 975.467 530.137 990.947 543.79 1006.43 558.382 1021.92 574.182 1037.4 591.585 1044.39 599.963 1056.01 615.347 1068.36 634.133 1075.36 646.115 1083.85 662.922 1089.8 676.882 1095.26 692.266 1099.62 707.649 1102.79 723.033 1104.9 738.417 1105.95 753.8 1105.95 769.184 1104.9 784.568 1102.79 799.951 1099.33 816.365 1095.26 830.719 1089.8 846.102 1083.23 861.486 1075.36 876.87 1066.34 892.253 1052.88 911.822 1037.4 931.399 1031.49 938.404 1017.3 953.788 1001.83 969.172 975.467 992.847 959.983 1005.75 944.498 1018.04 913.53 1040.82 898.045 1051.47 882.565 1061.71 851.597 1080.46 830.201 1092.24 805.148 1104.61 789.664 1111.43 774.179 1117.57 758.695 1123.09 743.21 1127.69 727.726 1131.54 712.246 1134.56 696.762 1136.67 681.277 1137.81 665.793 1137.91 650.308 1136.92 634.829 1134.78 619.344 1131.45 603.86 1126.9 603.86 1126.9" stroke="#107A37" stroke-width="3.66278" stroke-linejoin="round" stroke-opacity="0.95" fill="none" transform="matrix(1.00073 0 0 1 2412 477.508)"/></g><g><path d="M619.344 1277.03 618.433 1276.85 603.86 1273.73 588.375 1269.5 572.891 1264.36 565.524 1261.46 557.407 1258.17 541.927 1250.95 532.71 1246.08 526.442 1242.66 510.958 1233.24 507.149 1230.69 495.474 1222.62 485.763 1215.31 479.989 1210.82 467.023 1199.93 464.509 1197.74 450.32 1184.54 449.023 1183.29 435.219 1169.16 433.54 1167.37 421.408 1153.78 418.057 1149.87 408.661 1138.39 402.573 1130.65 396.812 1123.01 387.09 1109.56 385.74 1107.62 375.478 1092.24 371.606 1086.16 365.864 1076.86 356.821 1061.47 356.122 1060.22 348.439 1046.09 340.639 1030.94 340.518 1030.71 333.203 1015.32 326.319 999.939 325.155 997.165 319.964 984.555 314.054 969.172 309.672 956.888 308.583 953.788 303.596 938.404 299.024 923.021 294.868 907.637 294.188 904.84 291.166 892.253 287.883 876.87 285.011 861.486 282.548 846.102 280.496 830.719 278.855 815.335 278.704 813.458 277.634 799.951 276.822 784.568 276.415 769.184 276.415 753.8 276.822 738.417 277.634 723.033 278.704 709.526 278.855 707.649 280.496 692.266 282.548 676.882 285.011 661.498 287.883 646.115 291.166 630.731 294.188 618.145 294.868 615.347 299.024 599.963 303.596 584.58 308.583 569.196 309.672 566.096 314.054 553.812 319.964 538.429 325.155 525.82 326.319 523.045 333.203 507.661 340.518 492.278 340.639 492.04 348.439 476.894 356.122 462.76 356.821 461.51 365.864 446.127 371.606 436.825 375.478 430.743 385.74 415.359 387.09 413.425 396.812 399.976 402.573 392.338 408.661 384.592 418.057 373.116 421.408 369.208 433.54 355.61 435.219 353.825 449.023 339.692 450.32 338.441 464.509 325.245 467.023 323.057 479.989 312.167 485.763 307.674 495.474 300.361 507.149 292.29 510.958 289.74 526.442 280.325 532.71 276.906 541.927 272.037 557.407 264.808 565.524 261.523 572.891 258.629 588.375 253.481 603.86 249.257 618.433 246.139 619.344 245.95 634.829 243.6 650.308 242.091 665.793 241.39 681.277 241.461 696.762 242.265 712.246 243.756 727.726 245.885 729.173 246.139 743.21 248.676 758.695 252.025 774.179 255.869 789.664 260.15 794.219 261.523 805.148 264.917 820.628 270.064 836.112 275.493 839.976 276.906 851.597 281.292 867.081 287.326 879.521 292.29 882.565 293.545 898.045 300.039 913.53 306.605 916.034 307.674 929.014 313.409 944.498 320.273 950.771 323.057 959.983 327.292 975.467 334.411 984.226 338.441 990.947 341.648 1006.43 349.044 1016.4 353.825 1021.92 356.569 1037.4 364.333 1047.02 369.208 1052.88 372.303 1068.36 380.603 1075.64 384.592 1083.85 389.274 1099.33 398.362 1101.99 399.976 1114.82 408.102 1125.82 415.359 1130.3 418.447 1145.79 429.619 1147.27 430.743 1161.27 441.877 1166.33 446.127 1176.75 455.321 1183.37 461.51 1192.24 470.237 1198.59 476.894 1207.72 486.976 1212.22 492.278 1223.2 505.958 1224.48 507.661 1235.37 523.045 1238.68 528.031 1245.15 538.429 1254.09 553.812 1254.17 553.973 1261.86 569.196 1269.04 584.58 1269.65 586.017 1275.24 599.963 1280.85 615.347 1285.14 628.405 1285.85 630.731 1290.06 646.115 1293.75 661.498 1296.91 676.882 1299.55 692.266 1300.62 700.131 1301.59 707.649 1303.08 723.033 1304.06 738.417 1304.56 753.8 1304.56 769.184 1304.06 784.568 1303.08 799.951 1301.59 815.335 1300.62 822.853 1299.55 830.719 1296.91 846.102 1293.75 861.486 1290.06 876.87 1285.85 892.253 1285.14 894.579 1280.85 907.637 1275.24 923.021 1269.65 936.967 1269.04 938.404 1261.86 953.788 1254.17 969.012 1254.09 969.172 1245.15 984.555 1238.68 994.953 1235.37 999.939 1224.48 1015.32 1223.2 1017.03 1212.22 1030.71 1207.72 1036.01 1198.59 1046.09 1192.24 1052.75 1183.37 1061.47 1176.75 1067.66 1166.33 1076.86 1161.27 1081.11 1147.27 1092.24 1145.79 1093.37 1130.3 1104.54 1125.82 1107.62 1114.82 1114.88 1101.99 1123.01 1099.33 1124.62 1083.85 1133.71 1075.64 1138.39 1068.36 1142.38 1052.88 1150.68 1047.02 1153.78 1037.4 1158.65 1021.92 1166.41 1016.4 1169.16 1006.43 1173.94 990.947 1181.34 984.226 1184.54 975.467 1188.57 959.983 1195.69 950.771 1199.93 944.498 1202.71 929.014 1209.57 916.034 1215.31 913.53 1216.38 898.045 1222.95 882.565 1229.44 879.521 1230.69 867.081 1235.66 851.597 1241.69 839.976 1246.08 836.112 1247.49 820.628 1252.92 805.148 1258.07 794.219 1261.46 789.664 1262.84 774.179 1267.12 758.695 1270.96 743.21 1274.31 729.173 1276.85 727.726 1277.1 712.246 1279.23 696.762 1280.72 681.277 1281.52 665.793 1281.59 650.308 1280.89 634.829 1279.38 619.344 1277.03Z" stroke="#289049" stroke-width="3.66278" stroke-linejoin="round" stroke-opacity="0.95" fill="none" transform="matrix(1.00073 0 0 1 2412 477.508)"/></g><g><path d="M603.86 1386.99 592.647 1384.53 588.375 1383.57 572.891 1379.32 557.407 1374.31 543.593 1369.15 541.927 1368.51 526.442 1361.79 510.958 1354.31 509.928 1353.76 495.474 1345.88 482.864 1338.38 479.989 1336.63 464.509 1326.43 459.624 1323 449.023 1315.33 438.976 1307.61 433.54 1303.32 420.221 1292.23 418.057 1290.37 402.993 1276.85 402.573 1276.46 387.09 1261.53 387.023 1261.46 372.096 1246.08 371.606 1245.56 358.065 1230.69 356.122 1228.49 344.807 1215.31 340.639 1210.29 332.235 1199.93 325.155 1190.88 320.281 1184.54 309.672 1170.23 308.895 1169.16 298.089 1153.78 294.188 1148 287.781 1138.39 278.704 1124.22 277.939 1123.01 268.593 1107.62 263.221 1098.38 259.68 1092.24 251.21 1076.86 247.737 1070.24 243.168 1061.47 235.545 1046.09 232.254 1039.08 228.338 1030.71 221.542 1015.32 216.77 1003.84 215.15 999.939 209.167 984.555 203.582 969.172 201.286 962.359 198.4 953.788 193.619 938.404 189.236 923.021 185.803 909.766 185.252 907.637 181.667 892.253 178.481 876.87 175.693 861.486 173.303 846.102 171.311 830.719 170.319 821.136 169.719 815.335 168.524 799.951 167.727 784.568 167.329 769.184 167.329 753.8 167.727 738.417 168.524 723.033 169.719 707.649 170.319 701.848 171.311 692.266 173.303 676.882 175.693 661.498 178.481 646.115 181.667 630.731 185.252 615.347 185.803 613.218 189.236 599.963 193.619 584.58 198.4 569.196 201.286 560.625 203.582 553.812 209.167 538.429 215.15 523.045 216.77 519.14 221.542 507.661 228.338 492.278 232.254 483.908 235.545 476.894 243.168 461.51 247.737 452.749 251.21 446.127 259.68 430.743 263.221 424.604 268.593 415.359 277.939 399.976 278.704 398.768 287.781 384.592 294.188 374.985 298.089 369.208 308.895 353.825 309.672 352.76 320.281 338.441 325.155 332.097 332.235 323.057 340.639 312.698 344.807 307.674 356.122 294.493 358.065 292.29 371.606 277.428 372.096 276.906 387.023 261.523 387.09 261.456 402.573 246.528 402.993 246.139 418.057 232.61 420.221 230.755 433.54 219.665 438.976 215.372 449.023 207.656 459.624 199.988 464.509 196.55 479.989 186.359 482.864 184.604 495.474 177.111 509.928 169.22 510.958 168.672 526.442 161.189 541.927 154.476 543.593 153.837 557.407 148.677 572.891 143.662 588.375 139.414 592.647 138.453 603.86 135.991 619.344 133.325 634.829 131.377 650.308 130.124 665.793 129.543 681.277 129.603 696.762 130.269 712.246 131.505 727.726 133.271 743.21 135.524 758.695 138.22 759.862 138.453 774.179 141.385 789.664 144.917 805.148 148.764 820.628 152.882 824.034 153.837 836.112 157.312 851.597 161.958 867.081 166.754 874.855 169.22 882.565 171.729 898.045 176.856 913.53 182.04 921.134 184.604 929.014 187.332 944.498 192.712 959.983 198.099 965.408 199.988 975.467 203.584 990.947 209.123 1006.43 214.671 1008.38 215.372 1021.92 220.378 1037.4 226.145 1049.64 230.755 1052.88 232.013 1068.36 238.116 1083.85 244.354 1088.16 246.139 1099.33 250.909 1114.82 257.746 1123.03 261.523 1130.3 264.967 1145.79 272.648 1153.95 276.906 1161.27 280.851 1176.75 289.661 1181.11 292.29 1192.24 299.228 1204.98 307.674 1207.72 309.554 1223.2 320.866 1226.02 323.057 1238.68 333.284 1244.67 338.441 1254.17 346.921 1261.42 353.825 1269.65 361.978 1276.51 369.208 1285.14 378.678 1290.2 384.592 1300.62 397.28 1302.7 399.976 1314.09 415.359 1316.11 418.199 1324.48 430.743 1331.59 441.91 1334.12 446.127 1342.94 461.51 1347.07 469.106 1351.08 476.894 1358.59 492.278 1362.55 500.881 1365.52 507.661 1371.85 523.045 1377.79 538.429 1378.04 539.125 1383.07 553.812 1387.97 569.196 1392.48 584.58 1393.52 588.426 1396.49 599.963 1400.08 615.347 1403.31 630.731 1406.19 646.115 1408.7 661.498 1409 663.673 1410.77 676.882 1412.5 692.266 1413.87 707.649 1414.9 723.033 1415.59 738.417 1415.93 753.8 1415.93 769.184 1415.59 784.568 1414.9 799.951 1413.87 815.335 1412.5 830.719 1410.77 846.102 1409 859.311 1408.7 861.486 1406.19 876.87 1403.31 892.253 1400.08 907.637 1396.49 923.021 1393.52 934.558 1392.48 938.404 1387.97 953.788 1383.07 969.172 1378.04 983.86 1377.79 984.555 1371.85 999.939 1365.52 1015.32 1362.55 1022.1 1358.59 1030.71 1351.08 1046.09 1347.07 1053.88 1342.94 1061.47 1334.12 1076.86 1331.59 1081.07 1324.48 1092.24 1316.11 1104.79 1314.09 1107.62 1302.7 1123.01 1300.62 1125.71 1290.2 1138.39 1285.14 1144.31 1276.51 1153.78 1269.65 1161.01 1261.42 1169.16 1254.17 1176.06 1244.67 1184.54 1238.68 1189.7 1226.02 1199.93 1223.2 1202.12 1207.72 1213.43 1204.98 1215.31 1192.24 1223.76 1181.11 1230.69 1176.75 1233.32 1161.27 1242.14 1153.95 1246.08 1145.79 1250.34 1130.3 1258.02 1123.03 1261.46 1114.82 1265.24 1099.33 1272.07 1088.16 1276.85 1083.85 1278.63 1068.36 1284.87 1052.88 1290.97 1049.64 1292.23 1037.4 1296.84 1021.92 1302.61 1008.38 1307.61 1006.43 1308.31 990.947 1313.86 975.467 1319.4 965.408 1323 959.983 1324.89 944.498 1330.27 929.014 1335.65 921.134 1338.38 913.53 1340.94 898.045 1346.13 882.565 1351.25 874.855 1353.76 867.081 1356.23 851.597 1361.03 836.112 1365.67 824.034 1369.15 820.628 1370.1 805.148 1374.22 789.664 1378.07 774.179 1381.6 759.862 1384.53 758.695 1384.76 743.21 1387.46 727.726 1389.71 712.246 1391.48 696.762 1392.71 681.277 1393.38 665.793 1393.44 650.308 1392.86 634.829 1391.61 619.344 1389.66 603.86 1386.99Z" stroke="#3FA85B" stroke-width="3.66278" stroke-linejoin="round" stroke-opacity="0.95" fill="none" transform="matrix(1.00073 0 0 1 2412 477.508)"/></g><g><path d="M588.375 1479.7 576.105 1476.83 572.891 1476.07 557.407 1471.71 541.927 1466.68 527.706 1461.45 526.442 1460.97 510.958 1454.49 495.474 1447.35 492.914 1446.07 479.989 1439.43 464.509 1430.87 464.203 1430.68 449.023 1421.49 439.393 1415.3 433.54 1411.45 418.057 1400.7 416.973 1399.91 402.573 1389.19 396.57 1384.53 387.09 1376.99 377.577 1369.15 371.606 1364.1 359.76 1353.76 356.122 1350.51 342.937 1338.38 340.639 1336.21 326.964 1323 325.155 1321.2 311.732 1307.61 309.672 1305.47 297.154 1292.23 294.188 1289 283.164 1276.85 278.704 1271.78 269.71 1261.46 263.221 1253.78 256.755 1246.08 247.737 1234.98 244.271 1230.69 232.254 1215.33 232.236 1215.31 220.643 1199.93 216.77 1194.6 209.466 1184.54 201.286 1172.86 198.699 1169.16 188.34 1153.78 185.803 1149.86 178.381 1138.39 170.319 1125.42 168.822 1123.01 159.662 1107.62 154.836 1099.15 150.901 1092.24 142.538 1076.86 139.352 1070.7 134.576 1061.47 127.014 1046.09 123.868 1039.34 119.854 1030.71 113.097 1015.32 108.385 1003.92 106.741 999.939 100.794 984.555 95.2424 969.172 92.9014 962.185 90.0989 953.788 85.3593 938.404 81.0148 923.021 77.4179 909.011 77.0672 907.637 73.5326 892.253 70.3913 876.87 67.6419 861.486 65.2859 846.102 63.3222 830.719 61.9344 817.125 61.7531 815.335 60.5838 799.951 59.8045 784.568 59.4149 769.184 59.4149 753.8 59.8045 738.417 60.5838 723.033 61.7531 707.649 61.9344 705.859 63.3222 692.266 65.2859 676.882 67.6419 661.498 70.3913 646.115 73.5326 630.731 77.0672 615.347 77.4179 613.974 81.0148 599.963 85.3593 584.58 90.0989 569.196 92.9014 560.799 95.2424 553.812 100.794 538.429 106.741 523.045 108.385 519.062 113.097 507.661 119.854 492.278 123.868 483.647 127.014 476.894 134.576 461.51 139.352 452.28 142.538 446.127 150.901 430.743 154.836 423.833 159.662 415.359 168.822 399.976 170.319 397.566 178.381 384.592 185.803 373.126 188.34 369.208 198.699 353.825 201.286 350.125 209.466 338.441 216.77 328.381 220.643 323.057 232.236 307.674 232.254 307.651 244.271 292.29 247.737 288.002 256.755 276.906 263.221 269.2 269.71 261.523 278.704 251.204 283.164 246.139 294.188 233.984 297.154 230.755 309.672 217.517 311.732 215.372 325.155 201.784 326.964 199.988 340.639 186.775 342.937 184.604 356.122 172.478 359.76 169.22 371.606 158.886 377.577 153.837 387.09 145.994 396.57 138.453 402.573 133.795 416.973 123.069 418.057 122.282 433.54 111.538 439.393 107.686 449.023 101.495 464.203 92.3021 464.509 92.1208 479.989 83.5508 492.914 76.9184 495.474 75.6328 510.958 68.4954 526.442 62.01 527.706 61.5347 541.927 56.3079 557.407 51.2789 572.891 46.9179 576.105 46.151 588.375 43.2868 603.86 40.3212 619.344 37.9954 634.829 36.2955 650.308 35.2032 665.793 34.6962 681.277 34.7482 696.762 35.3297 712.246 36.408 727.726 37.9483 743.21 39.9135 758.695 42.265 774.179 44.9637 780.296 46.151 789.664 48.0094 805.148 51.3549 820.628 54.9353 836.112 58.7125 847.21 61.5347 851.597 62.6757 867.081 66.8325 882.565 71.0891 898.045 75.418 903.356 76.9184 913.53 79.8614 929.014 84.3694 944.498 88.8934 956.151 92.3021 959.983 93.4494 975.467 98.0856 990.947 102.723 1006.43 107.367 1007.49 107.686 1021.92 112.132 1037.4 116.938 1052.88 121.798 1056.87 123.069 1068.36 126.828 1083.85 132.001 1099.33 137.321 1102.52 138.453 1114.82 142.934 1130.3 148.805 1142.98 153.837 1145.79 154.978 1161.27 161.607 1176.75 168.611 1178.02 169.22 1192.24 176.216 1207.72 184.319 1208.23 184.604 1223.2 193.177 1234.35 199.988 1238.68 202.707 1254.17 213.078 1257.38 215.372 1269.65 224.395 1277.77 230.755 1285.14 236.7 1296.12 246.139 1300.62 250.122 1312.73 261.523 1316.11 264.797 1327.86 276.906 1331.59 280.873 1341.72 292.29 1347.07 298.512 1354.52 307.674 1362.55 317.89 1366.41 323.057 1377.49 338.441 1378.04 339.228 1387.69 353.825 1393.52 362.996 1397.3 369.208 1406.27 384.592 1409 389.462 1414.64 399.976 1422.55 415.359 1424.49 419.307 1429.88 430.743 1436.81 446.127 1439.97 453.508 1443.27 461.51 1449.3 476.894 1455.01 492.278 1455.46 493.537 1460.24 507.661 1465.13 523.045 1469.73 538.429 1470.94 542.787 1473.91 553.812 1477.76 569.196 1481.32 584.58 1484.58 599.963 1486.43 609.551 1487.51 615.347 1490.09 630.731 1492.39 646.115 1494.41 661.498 1496.13 676.882 1497.56 692.266 1498.72 707.649 1499.58 723.033 1500.15 738.417 1500.44 753.8 1500.44 769.184 1500.15 784.568 1499.58 799.951 1498.72 815.335 1497.56 830.719 1496.13 846.102 1494.41 861.486 1492.39 876.87 1490.09 892.253 1487.51 907.637 1486.43 913.433 1484.58 923.021 1481.32 938.404 1477.76 953.788 1473.91 969.172 1470.94 980.197 1469.73 984.555 1465.13 999.939 1460.24 1015.32 1455.46 1029.45 1455.01 1030.71 1449.3 1046.09 1443.27 1061.47 1439.97 1069.48 1436.81 1076.86 1429.88 1092.24 1424.49 1103.68 1422.55 1107.62 1414.64 1123.01 1409 1133.52 1406.27 1138.39 1397.3 1153.78 1393.52 1159.99 1387.69 1169.16 1378.04 1183.76 1377.49 1184.54 1366.41 1199.93 1362.55 1205.1 1354.52 1215.31 1347.07 1224.47 1341.72 1230.69 1331.59 1242.11 1327.86 1246.08 1316.11 1258.19 1312.73 1261.46 1300.62 1272.86 1296.12 1276.85 1285.14 1286.28 1277.77 1292.23 1269.65 1298.59 1257.38 1307.61 1254.17 1309.91 1238.68 1320.28 1234.35 1323 1223.2 1329.81 1208.23 1338.38 1207.72 1338.66 1192.24 1346.77 1178.02 1353.76 1176.75 1354.37 1161.27 1361.38 1145.79 1368.01 1142.98 1369.15 1130.3 1374.18 1114.82 1380.05 1102.52 1384.53 1099.33 1385.66 1083.85 1390.98 1068.36 1396.16 1056.87 1399.91 1052.88 1401.19 1037.4 1406.05 1021.92 1410.85 1007.49 1415.3 1006.43 1415.62 990.947 1420.26 975.467 1424.9 959.983 1429.53 956.151 1430.68 944.498 1434.09 929.014 1438.62 913.53 1443.12 903.356 1446.07 898.045 1447.57 882.565 1451.89 867.081 1456.15 851.597 1460.31 847.21 1461.45 836.112 1464.27 820.628 1468.05 805.148 1471.63 789.664 1474.97 780.296 1476.83 774.179 1478.02 758.695 1480.72 743.21 1483.07 727.726 1485.04 712.246 1486.58 696.762 1487.66 681.277 1488.24 665.793 1488.29 650.308 1487.78 634.829 1486.69 619.344 1484.99 603.86 1482.66 588.375 1479.7Z" stroke="#62BB6D" stroke-width="3.66278" stroke-linejoin="round" stroke-opacity="0.95" fill="none" transform="matrix(1.00073 0 0 1 2412 477.508)"/></g><g><path d="M468.442 1522.98 449.023 1512.8 433.54 1503.99 414.329 1492.22 387.09 1474.04 356.122 1451.26 330.299 1430.68 309.672 1413.24 277.736 1384.53 245.775 1353.76 215.748 1323 185.803 1290.37 160.758 1261.46 135.67 1230.69 112.203 1199.93 90.3951 1169.16 70.2929 1138.39 51.9135 1107.62 35.2689 1076.86 20.3539 1046.09 7.14064 1015.32 0 996.844M1532.87 1032.43 1523.33 1061.47 1512.01 1092.24 1499.36 1123.01 1485.24 1153.78 1469.49 1184.54 1451.92 1215.31 1439.97 1234.49 1421.6 1261.46 1409 1278.5 1393.52 1297.83 1378.04 1315.68 1362.55 1332.14 1347.07 1347.34 1331.59 1361.36 1316.11 1374.32 1300.62 1386.3 1281.27 1399.91 1256.93 1415.3 1238.68 1425.63 1223.2 1433.7 1192.24 1448.11 1159.01 1461.45 1130.3 1471.6 1099.33 1481.5 1052.88 1495.01 975.467 1515.79 948.083 1522.98M0 526.14 7.14064 507.661 20.3539 476.894 35.2689 446.127 51.9135 415.359 70.2929 384.592 90.3951 353.825 112.203 323.057 135.67 292.29 160.758 261.523 187.443 230.755 216.77 198.923 247.737 167.292 278.704 137.559 312.049 107.686 340.639 83.9006 369.595 61.5347 391.13 46.151 418.057 28.3958 449.023 10.1862 468.442 0M948.083 0 1052.88 27.9727 1083.85 36.8406 1114.82 46.2847 1145.79 56.7328 1176.75 68.4413 1207.72 81.8293 1229.08 92.3021 1254.17 106.034 1269.65 115.48 1285.14 125.655 1302.95 138.453 1322.37 153.837 1340.07 169.22 1356.3 184.604 1371.26 199.988 1385.14 215.372 1398.1 230.755 1410.26 246.139 1424.49 265.558 1442.4 292.29 1460.92 323.057 1477.54 353.825 1492.46 384.592 1505.87 415.359 1517.87 446.127 1528.52 476.894 1532.87 490.552 1532.87 490.552" stroke="#84CC83" stroke-width="3.66278" stroke-linejoin="round" stroke-opacity="0.95" fill="none" transform="matrix(1.00073 0 0 1 2412 477.508)"/></g><g><path d="M333.203 1522.98 309.672 1505.55 273.164 1476.83 236.448 1446.07 201.286 1414.93 168.623 1384.53 137.163 1353.76 107.336 1323 77.4179 1290.15 52.9849 1261.46 28.6424 1230.69 6.29582 1199.93 0 1190.72M1532.87 1211.21 1522.58 1230.69 1505.1 1261.46 1495.7 1276.85 1485.91 1292.23 1464.67 1323 1453.27 1338.38 1439.97 1355.3 1424.49 1373.71 1409 1390.87 1393.52 1406.87 1378.04 1421.78 1362.55 1435.66 1347.07 1448.58 1330.42 1461.45 1308.52 1476.83 1285.14 1491.68 1269.65 1500.54 1254.17 1508.81 1224.48 1522.98M0 332.27 17.2099 307.674 40.5739 276.906 65.8751 246.139 93.0616 215.372 123.868 182.743 154.836 151.767 185.803 122.288 218.844 92.3021 254.537 61.5347 292.397 30.7674 312.365 15.3837 333.203 0M1224.48 0 1254.17 14.1698 1269.65 22.4439 1285.14 31.3042 1308.52 46.151 1330.42 61.5347 1331.59 62.3872 1350.14 76.9184 1368.19 92.3021 1384.86 107.686 1400.35 123.069 1414.81 138.453 1428.4 153.837 1441.21 169.22 1455.46 187.47 1475.54 215.372 1495.7 246.139 1505.1 261.523 1522.58 292.29 1532.87 311.775 1532.87 311.775" stroke="#A4DA9E" stroke-width="3.66278" stroke-linejoin="round" stroke-opacity="0.95" fill="none" transform="matrix(1.00073 0 0 1 2412 477.508)"/></g><g><path d="M221.542 1522.98 216.77 1519.23 201.987 1507.6 201.286 1507.04 185.803 1494.58 182.862 1492.22 170.319 1481.91 164.143 1476.83 154.836 1469.02 145.824 1461.45 139.352 1455.9 127.909 1446.07 123.868 1442.52 110.414 1430.68 108.385 1428.86 93.3592 1415.3 92.9014 1414.88 77.4179 1400.51 76.7728 1399.91 61.9344 1385.74 60.6813 1384.53 46.4509 1370.48 45.1073 1369.15 30.9672 1354.69 30.0715 1353.76 15.5904 1338.38 15.4836 1338.27 1.69628 1323 0 1321.06M1532.87 1336.93 1531.93 1338.38 1521.56 1353.76 1517.39 1359.79 1510.76 1369.15 1501.91 1381.32 1499.51 1384.53 1487.72 1399.91 1486.43 1401.57 1475.32 1415.3 1470.94 1420.59 1462.3 1430.68 1455.46 1438.5 1448.59 1446.07 1439.97 1455.35 1434.09 1461.45 1424.49 1471.18 1418.68 1476.83 1409 1486.05 1402.23 1492.22 1393.52 1499.99 1384.58 1507.6 1378.04 1513.05 1365.52 1522.98M0 201.919 1.69628 199.988 15.4836 184.72 15.5904 184.604 30.0715 169.22 30.9672 168.293 45.1073 153.837 46.4509 152.498 60.6813 138.453 61.9344 137.247 76.7728 123.069 77.4179 122.468 92.9014 108.108 93.3592 107.686 108.385 94.1284 110.414 92.3021 123.868 80.4676 127.909 76.9184 139.352 67.0898 145.824 61.5347 154.836 53.966 164.143 46.151 170.319 41.0749 182.862 30.7674 185.803 28.4009 201.286 15.9466 201.987 15.3837 216.77 3.74826 221.542 0M1365.52 0 1378.04 9.93076 1384.58 15.3837 1393.52 22.9954 1402.23 30.7674 1409 36.9366 1418.68 46.151 1424.49 51.8013 1434.09 61.5347 1439.97 67.6355 1448.59 76.9184 1455.46 84.4852 1462.3 92.3021 1470.94 102.396 1475.32 107.686 1486.43 121.415 1487.72 123.069 1499.51 138.453 1501.91 141.664 1510.76 153.837 1517.39 163.193 1521.56 169.22 1531.93 184.604 1532.87 186.052" stroke="#C1E6BA" stroke-width="3.66278" stroke-linejoin="round" stroke-opacity="0.95" fill="none" transform="matrix(1.00073 0 0 1 2412 477.508)"/></g><g><path d="M113.097 1522.98 108.385 1519.26 93.6564 1507.6 92.9014 1506.99 77.4179 1494.42 74.7111 1492.22 61.9344 1481.57 56.2974 1476.83 46.4509 1468.38 38.4519 1461.45 30.9672 1454.82 21.2113 1446.07 15.4836 1440.81 4.60618 1430.68 0 1426.29M1532.87 1439.69 1527.9 1446.07 1517.39 1459.24 1515.58 1461.45 1502.72 1476.83 1501.91 1477.78 1489.23 1492.22 1486.43 1495.35 1475.1 1507.6 1470.94 1512.01 1460.24 1522.98M0 96.691 4.60618 92.3021 15.4836 82.1736 21.2113 76.9184 30.9672 68.1666 38.4519 61.5347 46.4509 54.6015 56.2974 46.151 61.9344 41.4163 74.7111 30.7674 77.4179 28.5582 92.9014 15.9939 93.6564 15.3837 108.385 3.7219 113.097 0M1460.24 0 1470.94 10.9775 1475.1 15.3837 1486.43 27.6367 1489.23 30.7674 1501.91 45.2019 1502.72 46.151 1515.58 61.5347 1517.39 63.7466 1527.9 76.9184 1532.87 83.293" stroke="#D8F0D2" stroke-width="3.66278" stroke-linejoin="round" stroke-opacity="0.95" fill="none" transform="matrix(1.00073 0 0 1 2412 477.508)"/></g><g><path d="M7.14064 1522.98 0 1517.01M0 5.97065 7.14064 0" stroke="#EAF7E6" stroke-width="3.66278" stroke-linejoin="round" stroke-opacity="0.95" fill="none" transform="matrix(1.00073 0 0 1 2412 477.508)"/></g><g><path d="" stroke="#F7FCF5" stroke-width="3.66278" stroke-linejoin="round" stroke-opacity="0.95" fill="none" transform="matrix(1.00073 0 0 1 2412 477.508)"/></g><text fill="#FFFFFF" font-family="Ericsson Hilda Light,Ericsson Hilda Light_MSFontService,sans-serif" font-weight="300" font-size="367" transform="matrix(1 0 0 1 2777.08 1278)">MLR</text><text fill="#FFFFFF" font-family="Ericsson Hilda,Ericsson Hilda_MSFontService,sans-serif" font-weight="400" font-size="110" transform="matrix(1 0 0 1 2804.8 1413)">Machine Learning </text><text fill="#FFFFFF" font-family="Ericsson Hilda,Ericsson Hilda_MSFontService,sans-serif" font-weight="400" font-size="110" transform="matrix(1 0 0 1 2804.8 1545)">&amp;  Reasoning</text></g></svg>