<svg width="1980" height="1980" xmlns="http://www.w3.org/2000/svg" xmlns:xlink="http://www.w3.org/1999/xlink" xml:space="preserve" overflow="hidden"><defs><clipPath id="clip0"><rect x="2139" y="236" width="1980" height="1980"/></clipPath><clipPath id="clip1"><rect x="2386" y="473" width="1536" height="1526"/></clipPath><clipPath id="clip2"><rect x="2386" y="473" width="1536" height="1526"/></clipPath></defs><g clip-path="url(#clip0)" transform="translate(-2139 -236)"><g clip-path="url(#clip1)"><path d="" stroke="#00441B" stroke-width="3.66667" stroke-linejoin="round" fill="none"/></g><g><path d="M3022 1338.44 3018.69 1336 3006.5 1325.52 3002.32 1320.6 2991.41 1305.2 2991 1304.47 2984.48 1289.8 2979.35 1274.4 2975.93 1259 2975.5 1255.16 2974.45 1243.6 2974.45 1228.2 2975.5 1216.64 2975.93 1212.8 2979.35 1197.4 2984.48 1182 2991 1167.33 2991.41 1166.6 3002.32 1151.2 3006.5 1146.28 3018.69 1135.8 3022 1133.36 3037.5 1126.02 3053 1122.61 3068.5 1122.96 3084 1126.87 3099.5 1134.11 3102.03 1135.8 3115 1145.91 3120.32 1151.2 3130.5 1163.34 3132.78 1166.6 3141.41 1182 3146 1192.92 3147.64 1197.4 3151.4 1212.8 3153.28 1228.2 3153.28 1243.6 3151.4 1259 3147.64 1274.4 3146 1278.88 3141.41 1289.8 3132.78 1305.2 3130.5 1308.46 3120.32 1320.6 3115 1325.89 3102.03 1336 3099.5 1337.69 3084 1344.93 3068.5 1348.84 3053 1349.19 3037.5 1345.78 3022 1338.44" stroke="#006227" stroke-width="3.66667" stroke-linejoin="round" fill="none"/></g><g><path d="M2991 1601.69 2975.5 1595.79 2960 1588.4 2944.5 1579.54 2926.38 1567 2907.9 1551.6 2892.14 1536.2 2878.4 1520.8 2866.19 1505.4 2851.5 1484 2836.85 1459.2 2829.01 1443.8 2820.5 1425.49 2809.54 1397.6 2804.29 1382.2 2795.72 1351.4 2789.18 1320.6 2784.82 1289.8 2782.4 1259 2781.92 1228.2 2783.37 1197.4 2786.76 1166.6 2789.5 1149.49 2795.72 1120.4 2804.29 1089.6 2809.54 1074.2 2820.5 1046.31 2821.76 1043.4 2836 1014.19 2836.85 1012.6 2851.5 987.799 2855.44 981.8 2867 965.305 2882.5 946.129 2898 929.526 2913.5 915.17 2929 902.785 2949.35 889.4 2960 883.403 2980.63 874 2991 870.111 3006.5 865.551 3022 862.219 3037.5 860.078 3053 859.084 3068.5 859.186 3084 860.325 3099.5 862.44 3115 865.459 3130.5 869.312 3146.23 874 3161.5 879.439 3185.82 889.4 3208 899.912 3223.5 907.962 3254.5 925.78 3270.37 935.6 3301 956.276 3316.5 967.362 3347.5 991.384 3363 1004.3 3378.5 1017.97 3394 1032.57 3409.5 1048.39 3425 1065.81 3432 1074.2 3443.63 1089.6 3456 1108.4 3463.01 1120.4 3471.5 1137.22 3477.45 1151.2 3482.92 1166.6 3487.28 1182 3490.45 1197.4 3492.57 1212.8 3493.62 1228.2 3493.62 1243.6 3492.57 1259 3490.45 1274.4 3487 1290.83 3482.92 1305.2 3477.45 1320.6 3470.88 1336 3463.01 1351.4 3453.97 1366.8 3440.5 1386.39 3425 1405.99 3419.08 1413 3404.87 1428.4 3389.39 1443.8 3363 1467.5 3347.5 1480.42 3332 1492.72 3301 1515.52 3285.5 1526.18 3270 1536.43 3239 1555.2 3217.58 1567 3192.5 1579.38 3177 1586.21 3161.5 1592.36 3146 1597.88 3130.5 1602.49 3115 1606.34 3099.5 1609.36 3084 1611.47 3068.5 1612.61 3053 1612.72 3037.5 1611.72 3022 1609.58 3006.5 1606.25 2991 1601.69 2991 1601.69" stroke="#107A37" stroke-width="3.66667" stroke-linejoin="round" fill="none"/></g><g><path d="M3006.5 1751.99 3005.59 1751.8 2991 1748.68 2975.5 1744.45 2960 1739.3 2952.62 1736.4 2944.5 1733.11 2929 1725.87 2919.78 1721 2913.5 1717.58 2898 1708.15 2894.19 1705.6 2882.5 1697.52 2872.78 1690.2 2867 1685.7 2854.02 1674.8 2851.5 1672.61 2837.3 1659.4 2836 1658.15 2822.18 1644 2820.5 1642.21 2808.36 1628.6 2805 1624.69 2795.59 1613.2 2789.5 1605.45 2783.73 1597.8 2774 1584.34 2772.65 1582.4 2762.38 1567 2758.5 1560.91 2752.75 1551.6 2743.7 1536.2 2743 1534.95 2735.31 1520.8 2727.5 1505.64 2727.38 1505.4 2720.06 1490 2713.17 1474.6 2712 1471.82 2706.8 1459.2 2700.89 1443.8 2696.5 1431.5 2695.41 1428.4 2690.42 1413 2685.84 1397.6 2681.68 1382.2 2681 1379.4 2677.98 1366.8 2674.69 1351.4 2671.81 1336 2669.35 1320.6 2667.29 1305.2 2665.65 1289.8 2665.5 1287.92 2664.43 1274.4 2663.62 1259 2663.21 1243.6 2663.21 1228.2 2663.62 1212.8 2664.43 1197.4 2665.5 1183.88 2665.65 1182 2667.29 1166.6 2669.35 1151.2 2671.81 1135.8 2674.69 1120.4 2677.98 1105 2681 1092.4 2681.68 1089.6 2685.84 1074.2 2690.42 1058.8 2695.41 1043.4 2696.5 1040.3 2700.89 1028 2706.8 1012.6 2712 999.977 2713.17 997.2 2720.06 981.8 2727.38 966.4 2727.5 966.161 2735.31 951 2743 936.854 2743.7 935.6 2752.75 920.2 2758.5 910.888 2762.38 904.8 2772.65 889.4 2774 887.464 2783.73 874 2789.5 866.355 2795.59 858.6 2805 847.112 2808.36 843.2 2820.5 829.588 2822.18 827.8 2836 813.652 2837.3 812.4 2851.5 799.19 2854.02 797 2867 786.098 2872.78 781.6 2882.5 774.28 2894.19 766.2 2898 763.647 2913.5 754.223 2919.78 750.8 2929 745.926 2944.5 738.689 2952.62 735.4 2960 732.503 2975.5 727.35 2991 723.122 3005.59 720 3006.5 719.811 3022 717.459 3037.5 715.947 3053 715.246 3068.5 715.318 3084 716.122 3099.5 717.615 3115 719.746 3116.45 720 3130.5 722.54 3146 725.893 3161.5 729.741 3177 734.027 3181.56 735.4 3192.5 738.798 3208 743.95 3223.5 749.386 3227.37 750.8 3239 755.191 3254.5 761.231 3266.95 766.2 3270 767.457 3285.5 773.957 3301 780.531 3303.5 781.6 3316.5 787.341 3332 794.213 3338.28 797 3347.5 801.239 3363 808.367 3371.77 812.4 3378.5 815.611 3394 823.015 3403.98 827.8 3409.5 830.548 3425 838.32 3434.62 843.2 3440.5 846.299 3456 854.607 3463.29 858.6 3471.5 863.288 3487 872.385 3489.66 874 3502.5 882.135 3513.52 889.4 3518 892.491 3533.5 903.675 3534.98 904.8 3549 915.946 3554.07 920.2 3564.5 929.404 3571.13 935.6 3580 944.337 3586.37 951 3595.5 961.092 3600.01 966.4 3611 980.096 3612.28 981.8 3623.19 997.2 3626.5 1002.19 3632.97 1012.6 3641.92 1028 3642 1028.16 3649.7 1043.4 3656.88 1058.8 3657.5 1060.24 3663.1 1074.2 3668.71 1089.6 3673 1102.67 3673.72 1105 3677.93 1120.4 3681.62 1135.8 3684.79 1151.2 3687.42 1166.6 3688.5 1174.47 3689.47 1182 3690.96 1197.4 3691.95 1212.8 3692.44 1228.2 3692.44 1243.6 3691.95 1259 3690.96 1274.4 3689.47 1289.8 3688.5 1297.33 3687.42 1305.2 3684.79 1320.6 3681.62 1336 3677.93 1351.4 3673.72 1366.8 3673 1369.13 3668.71 1382.2 3663.1 1397.6 3657.5 1411.56 3656.88 1413 3649.7 1428.4 3642 1443.64 3641.92 1443.8 3632.97 1459.2 3626.5 1469.61 3623.19 1474.6 3612.28 1490 3611 1491.7 3600.01 1505.4 3595.5 1510.71 3586.37 1520.8 3580 1527.46 3571.13 1536.2 3564.5 1542.4 3554.07 1551.6 3549 1555.85 3534.98 1567 3533.5 1568.13 3518 1579.31 3513.52 1582.4 3502.5 1589.67 3489.66 1597.8 3487 1599.42 3471.5 1608.51 3463.29 1613.2 3456 1617.19 3440.5 1625.5 3434.62 1628.6 3425 1633.48 3409.5 1641.25 3403.98 1644 3394 1648.79 3378.5 1656.19 3371.77 1659.4 3363 1663.43 3347.5 1670.56 3338.28 1674.8 3332 1677.59 3316.5 1684.46 3303.5 1690.2 3301 1691.27 3285.5 1697.84 3270 1704.34 3266.95 1705.6 3254.5 1710.57 3239 1716.61 3227.37 1721 3223.5 1722.41 3208 1727.85 3192.5 1733 3181.56 1736.4 3177 1737.77 3161.5 1742.06 3146 1745.91 3130.5 1749.26 3116.45 1751.8 3115 1752.05 3099.5 1754.19 3084 1755.68 3068.5 1756.48 3053 1756.55 3037.5 1755.85 3022 1754.34 3006.5 1751.99Z" stroke="#289049" stroke-width="3.66667" stroke-linejoin="round" fill="none"/></g><g><path d="M2991 1862.06 2979.78 1859.6 2975.5 1858.64 2960 1854.39 2944.5 1849.37 2930.67 1844.2 2929 1843.56 2913.5 1836.84 2898 1829.35 2896.97 1828.8 2882.5 1820.9 2869.88 1813.4 2867 1811.64 2851.5 1801.44 2846.61 1798 2836 1790.32 2825.94 1782.6 2820.5 1778.3 2807.17 1767.2 2805 1765.34 2789.92 1751.8 2789.5 1751.41 2774 1736.47 2773.93 1736.4 2758.99 1721 2758.5 1720.48 2744.94 1705.6 2743 1703.39 2731.67 1690.2 2727.5 1685.17 2719.09 1674.8 2712 1665.75 2707.12 1659.4 2696.5 1645.07 2695.72 1644 2684.91 1628.6 2681 1622.82 2674.59 1613.2 2665.5 1599.01 2664.73 1597.8 2655.38 1582.4 2650 1573.15 2646.46 1567 2637.98 1551.6 2634.5 1544.97 2629.93 1536.2 2622.3 1520.8 2619 1513.78 2615.08 1505.4 2608.28 1490 2603.5 1478.51 2601.88 1474.6 2595.89 1459.2 2590.3 1443.8 2588 1436.98 2585.11 1428.4 2580.32 1413 2575.94 1397.6 2572.5 1384.33 2571.95 1382.2 2568.36 1366.8 2565.17 1351.4 2562.38 1336 2559.99 1320.6 2557.99 1305.2 2557 1295.61 2556.4 1289.8 2555.2 1274.4 2554.41 1259 2554.01 1243.6 2554.01 1228.2 2554.41 1212.8 2555.2 1197.4 2556.4 1182 2557 1176.19 2557.99 1166.6 2559.99 1151.2 2562.38 1135.8 2565.17 1120.4 2568.36 1105 2571.95 1089.6 2572.5 1087.47 2575.94 1074.2 2580.32 1058.8 2585.11 1043.4 2588 1034.82 2590.3 1028 2595.89 1012.6 2601.88 997.2 2603.5 993.291 2608.28 981.8 2615.08 966.4 2619 958.02 2622.3 951 2629.93 935.6 2634.5 926.83 2637.98 920.2 2646.46 904.8 2650 898.655 2655.38 889.4 2664.73 874 2665.5 872.792 2674.59 858.6 2681 848.982 2684.91 843.2 2695.72 827.8 2696.5 826.734 2707.12 812.4 2712 806.05 2719.09 797 2727.5 786.629 2731.67 781.6 2743 768.406 2744.94 766.2 2758.5 751.323 2758.99 750.8 2773.93 735.4 2774 735.334 2789.5 720.39 2789.92 720 2805 706.457 2807.17 704.6 2820.5 693.498 2825.94 689.2 2836 681.477 2846.61 673.8 2851.5 670.359 2867 660.157 2869.88 658.4 2882.5 650.899 2896.97 643 2898 642.452 2913.5 634.961 2929 628.24 2930.67 627.6 2944.5 622.435 2960 617.414 2975.5 613.162 2979.78 612.2 2991 609.736 3006.5 607.067 3022 605.116 3037.5 603.863 3053 603.281 3068.5 603.34 3084 604.008 3099.5 605.245 3115 607.013 3130.5 609.268 3146 611.966 3147.17 612.2 3161.5 615.135 3177 618.671 3192.5 622.522 3208 626.644 3211.41 627.6 3223.5 631.08 3239 635.73 3254.5 640.531 3262.28 643 3270 645.512 3285.5 650.644 3301 655.834 3308.61 658.4 3316.5 661.131 3332 666.517 3347.5 671.909 3352.93 673.8 3363 677.4 3378.5 682.946 3394 688.499 3395.95 689.2 3409.5 694.211 3425 699.985 3437.25 704.6 3440.5 705.859 3456 711.969 3471.5 718.213 3475.81 720 3487 724.775 3502.5 731.62 3510.73 735.4 3518 738.848 3533.5 746.537 3541.67 750.8 3549 754.749 3564.5 763.569 3568.86 766.2 3580 773.145 3592.75 781.6 3595.5 783.483 3611 794.807 3613.82 797 3626.5 807.237 3632.5 812.4 3642 820.889 3649.25 827.8 3657.5 835.962 3664.36 843.2 3673 852.681 3678.07 858.6 3688.5 871.302 3690.58 874 3701.99 889.4 3704 892.243 3712.38 904.8 3719.5 915.979 3722.04 920.2 3730.86 935.6 3735 943.206 3739.02 951 3746.53 966.4 3750.5 975.014 3753.47 981.8 3759.81 997.2 3765.75 1012.6 3766 1013.29 3771.04 1028 3775.94 1043.4 3780.46 1058.8 3781.5 1062.65 3784.47 1074.2 3788.06 1089.6 3791.3 1105 3794.18 1120.4 3796.7 1135.8 3797 1137.98 3798.77 1151.2 3800.49 1166.6 3801.87 1182 3802.9 1197.4 3803.59 1212.8 3803.93 1228.2 3803.93 1243.6 3803.59 1259 3802.9 1274.4 3801.87 1289.8 3800.49 1305.2 3798.77 1320.6 3797 1333.82 3796.7 1336 3794.18 1351.4 3791.3 1366.8 3788.06 1382.2 3784.47 1397.6 3781.5 1409.15 3780.46 1413 3775.94 1428.4 3771.04 1443.8 3766 1458.51 3765.75 1459.2 3759.81 1474.6 3753.47 1490 3750.5 1496.79 3746.53 1505.4 3739.02 1520.8 3735 1528.59 3730.86 1536.2 3722.04 1551.6 3719.5 1555.82 3712.38 1567 3704 1579.56 3701.99 1582.4 3690.58 1597.8 3688.5 1600.5 3678.07 1613.2 3673 1619.12 3664.36 1628.6 3657.5 1635.84 3649.25 1644 3642 1650.91 3632.5 1659.4 3626.5 1664.56 3613.82 1674.8 3611 1676.99 3595.5 1688.32 3592.75 1690.2 3580 1698.66 3568.86 1705.6 3564.5 1708.23 3549 1717.05 3541.67 1721 3533.5 1725.26 3518 1732.95 3510.73 1736.4 3502.5 1740.18 3487 1747.03 3475.81 1751.8 3471.5 1753.59 3456 1759.83 3440.5 1765.94 3437.25 1767.2 3425 1771.82 3409.5 1777.59 3395.95 1782.6 3394 1783.3 3378.5 1788.85 3363 1794.4 3352.93 1798 3347.5 1799.89 3332 1805.28 3316.5 1810.67 3308.61 1813.4 3301 1815.97 3285.5 1821.16 3270 1826.29 3262.28 1828.8 3254.5 1831.27 3239 1836.07 3223.5 1840.72 3211.41 1844.2 3208 1845.16 3192.5 1849.28 3177 1853.13 3161.5 1856.67 3147.17 1859.6 3146 1859.83 3130.5 1862.53 3115 1864.79 3099.5 1866.56 3084 1867.79 3068.5 1868.46 3053 1868.52 3037.5 1867.94 3022 1866.68 3006.5 1864.73 2991 1862.06Z" stroke="#3FA85B" stroke-width="3.66667" stroke-linejoin="round" fill="none"/></g><g><path d="M2975.5 1954.87 2963.22 1952 2960 1951.23 2944.5 1946.87 2929 1941.83 2914.77 1936.6 2913.5 1936.12 2898 1929.63 2882.5 1922.49 2879.94 1921.2 2867 1914.56 2851.5 1905.98 2851.19 1905.8 2836 1896.6 2826.36 1890.4 2820.5 1886.54 2805 1875.79 2803.92 1875 2789.5 1864.26 2783.49 1859.6 2774 1852.05 2764.48 1844.2 2758.5 1839.15 2746.64 1828.8 2743 1825.54 2729.8 1813.4 2727.5 1811.23 2713.81 1798 2712 1796.2 2698.56 1782.6 2696.5 1780.45 2683.97 1767.2 2681 1763.97 2669.96 1751.8 2665.5 1746.73 2656.5 1736.4 2650 1728.71 2643.53 1721 2634.5 1709.89 2631.03 1705.6 2619 1690.22 2618.98 1690.2 2607.38 1674.8 2603.5 1669.47 2596.19 1659.4 2588 1647.7 2585.41 1644 2575.04 1628.6 2572.5 1624.68 2565.07 1613.2 2557 1600.21 2555.5 1597.8 2546.33 1582.4 2541.5 1573.92 2537.56 1567 2529.19 1551.6 2526 1545.44 2521.22 1536.2 2513.65 1520.8 2510.5 1514.04 2506.48 1505.4 2499.72 1490 2495 1478.59 2493.35 1474.6 2487.4 1459.2 2481.84 1443.8 2479.5 1436.81 2476.69 1428.4 2471.95 1413 2467.6 1397.6 2464 1383.58 2463.65 1382.2 2460.11 1366.8 2456.97 1351.4 2454.21 1336 2451.86 1320.6 2449.89 1305.2 2448.5 1291.59 2448.32 1289.8 2447.15 1274.4 2446.37 1259 2445.98 1243.6 2445.98 1228.2 2446.37 1212.8 2447.15 1197.4 2448.32 1182 2448.5 1180.21 2449.89 1166.6 2451.86 1151.2 2454.21 1135.8 2456.97 1120.4 2460.11 1105 2463.65 1089.6 2464 1088.23 2467.6 1074.2 2471.95 1058.8 2476.69 1043.4 2479.5 1034.99 2481.84 1028 2487.4 1012.6 2493.35 997.2 2495 993.211 2499.72 981.8 2506.48 966.4 2510.5 957.761 2513.65 951 2521.22 935.6 2526 926.36 2529.19 920.2 2537.56 904.8 2541.5 897.883 2546.33 889.4 2555.5 874 2557 871.588 2565.07 858.6 2572.5 847.122 2575.04 843.2 2585.41 827.8 2588 824.096 2596.19 812.4 2603.5 802.329 2607.38 797 2618.98 781.6 2619 781.577 2631.03 766.2 2634.5 761.908 2643.53 750.8 2650 743.086 2656.5 735.4 2665.5 725.071 2669.96 720 2681 707.833 2683.97 704.6 2696.5 691.348 2698.56 689.2 2712 675.599 2713.81 673.8 2727.5 660.573 2729.8 658.4 2743 646.261 2746.64 643 2758.5 632.655 2764.48 627.6 2774 619.749 2783.49 612.2 2789.5 607.537 2803.92 596.8 2805 596.012 2820.5 585.257 2826.36 581.4 2836 575.203 2851.19 566 2851.5 565.819 2867 557.24 2879.94 550.6 2882.5 549.313 2898 542.168 2913.5 535.676 2914.77 535.2 2929 529.968 2944.5 524.934 2960 520.568 2963.22 519.8 2975.5 516.933 2991 513.964 3006.5 511.636 3022 509.934 3037.5 508.841 3053 508.333 3068.5 508.385 3084 508.967 3099.5 510.047 3115 511.589 3130.5 513.556 3146 515.91 3161.5 518.612 3167.62 519.8 3177 521.661 3192.5 525.01 3208 528.594 3223.5 532.375 3234.61 535.2 3239 536.342 3254.5 540.503 3270 544.764 3285.5 549.098 3290.81 550.6 3301 553.546 3316.5 558.059 3332 562.588 3343.66 566 3347.5 567.149 3363 571.79 3378.5 576.432 3394 581.081 3395.06 581.4 3409.5 585.851 3425 590.662 3440.5 595.528 3444.49 596.8 3456 600.563 3471.5 605.742 3487 611.067 3490.19 612.2 3502.5 616.685 3518 622.563 3530.69 627.6 3533.5 628.742 3549 635.378 3564.5 642.39 3565.77 643 3580 650.003 3595.5 658.115 3596.01 658.4 3611 666.982 3622.16 673.8 3626.5 676.522 3642 686.905 3645.21 689.2 3657.5 698.233 3665.62 704.6 3673 710.552 3684 720 3688.5 723.988 3700.62 735.4 3704 738.678 3715.77 750.8 3719.5 754.771 3729.65 766.2 3735 772.429 3742.46 781.6 3750.5 791.827 3754.36 797 3765.45 812.4 3766 813.188 3775.66 827.8 3781.5 836.981 3785.28 843.2 3794.27 858.6 3797 863.476 3802.64 874 3810.56 889.4 3812.5 893.352 3817.9 904.8 3824.83 920.2 3828 927.589 3831.31 935.6 3837.34 951 3843.06 966.4 3843.5 967.662 3848.28 981.8 3853.19 997.2 3857.79 1012.6 3859 1016.96 3861.98 1028 3865.83 1043.4 3869.39 1058.8 3872.65 1074.2 3874.5 1083.8 3875.58 1089.6 3878.17 1105 3880.48 1120.4 3882.49 1135.8 3884.22 1151.2 3885.66 1166.6 3886.81 1182 3887.67 1197.4 3888.25 1212.8 3888.53 1228.2 3888.53 1243.6 3888.25 1259 3887.67 1274.4 3886.81 1289.8 3885.66 1305.2 3884.22 1320.6 3882.49 1336 3880.48 1351.4 3878.17 1366.8 3875.58 1382.2 3874.5 1388 3872.65 1397.6 3869.39 1413 3865.83 1428.4 3861.98 1443.8 3859 1454.84 3857.79 1459.2 3853.19 1474.6 3848.28 1490 3843.5 1504.14 3843.06 1505.4 3837.34 1520.8 3831.31 1536.2 3828 1544.21 3824.83 1551.6 3817.9 1567 3812.5 1578.45 3810.56 1582.4 3802.64 1597.8 3797 1608.32 3794.27 1613.2 3785.28 1628.6 3781.5 1634.82 3775.66 1644 3766 1658.61 3765.45 1659.4 3754.36 1674.8 3750.5 1679.97 3742.46 1690.2 3735 1699.37 3729.65 1705.6 3719.5 1717.03 3715.77 1721 3704 1733.12 3700.62 1736.4 3688.5 1747.81 3684 1751.8 3673 1761.25 3665.62 1767.2 3657.5 1773.57 3645.21 1782.6 3642 1784.9 3626.5 1795.28 3622.16 1798 3611 1804.82 3596.01 1813.4 3595.5 1813.69 3580 1821.8 3565.77 1828.8 3564.5 1829.41 3549 1836.42 3533.5 1843.06 3530.69 1844.2 3518 1849.24 3502.5 1855.11 3490.19 1859.6 3487 1860.73 3471.5 1866.06 3456 1871.24 3444.49 1875 3440.5 1876.27 3425 1881.14 3409.5 1885.95 3395.06 1890.4 3394 1890.72 3378.5 1895.37 3363 1900.01 3347.5 1904.65 3343.66 1905.8 3332 1909.21 3316.5 1913.74 3301 1918.25 3290.81 1921.2 3285.5 1922.7 3270 1927.04 3254.5 1931.3 3239 1935.46 3234.61 1936.6 3223.5 1939.43 3208 1943.21 3192.5 1946.79 3177 1950.14 3167.62 1952 3161.5 1953.19 3146 1955.89 3130.5 1958.24 3115 1960.21 3099.5 1961.75 3084 1962.83 3068.5 1963.42 3053 1963.47 3037.5 1962.96 3022 1961.87 3006.5 1960.16 2991 1957.84 2975.5 1954.87Z" stroke="#62BB6D" stroke-width="3.66667" stroke-linejoin="round" fill="none"/></g><g><path d="M2855.44 1998.2 2836 1988 2820.5 1979.19 2801.27 1967.4 2774 1949.2 2743 1926.4 2717.15 1905.8 2696.5 1888.34 2664.53 1859.6 2632.54 1828.8 2602.48 1798 2572.5 1765.34 2547.43 1736.4 2522.31 1705.6 2498.82 1674.8 2476.99 1644 2456.87 1613.2 2438.47 1582.4 2421.81 1551.6 2406.88 1520.8 2393.65 1490 2386.5 1471.5M3921 1507.13 3911.45 1536.2 3900.12 1567 3887.45 1597.8 3873.32 1628.6 3857.56 1659.4 3839.96 1690.2 3828 1709.4 3809.61 1736.4 3797 1753.45 3781.5 1772.81 3766 1790.67 3750.5 1807.15 3735 1822.36 3719.5 1836.4 3704 1849.37 3688.5 1861.37 3669.13 1875 3644.76 1890.4 3626.5 1900.75 3611 1908.82 3580 1923.24 3546.74 1936.6 3518 1946.76 3487 1956.68 3440.5 1970.2 3363 1991 3335.59 1998.2M2386.5 1000.3 2393.65 981.8 2406.88 951 2421.81 920.2 2438.47 889.4 2456.87 858.6 2476.99 827.8 2498.82 797 2522.31 766.2 2547.43 735.4 2574.14 704.6 2603.5 672.734 2634.5 641.069 2665.5 611.305 2698.88 581.4 2727.5 557.59 2756.49 535.2 2778.05 519.8 2805 502.026 2836 483.797 2855.44 473.6M3335.59 473.6 3440.5 501.603 3471.5 510.48 3502.5 519.934 3533.5 530.393 3564.5 542.114 3595.5 555.516 3616.88 566 3642 579.747 3657.5 589.203 3673 599.388 3690.83 612.2 3710.28 627.6 3727.99 643 3744.23 658.4 3759.21 673.8 3773.11 689.2 3786.09 704.6 3798.26 720 3812.5 739.44 3830.43 766.2 3848.97 797 3865.61 827.8 3880.55 858.6 3893.96 889.4 3905.99 920.2 3916.64 951 3921 964.674 3921 964.674" stroke="#84CC83" stroke-width="3.66667" stroke-linejoin="round" fill="none"/></g><g><path d="M2720.06 1998.2 2696.5 1980.75 2659.95 1952 2623.2 1921.2 2588 1890.03 2555.3 1859.6 2523.81 1828.8 2493.95 1798 2464 1765.11 2439.54 1736.4 2415.17 1705.6 2392.8 1674.8 2386.5 1665.58M3921 1686.09 3910.7 1705.6 3893.19 1736.4 3883.79 1751.8 3873.99 1767.2 3852.73 1798 3841.31 1813.4 3828 1830.34 3812.5 1848.76 3797 1865.95 3781.5 1881.97 3766 1896.89 3750.5 1910.78 3735 1923.72 3718.34 1936.6 3696.41 1952 3673 1966.86 3657.5 1975.73 3642 1984.02 3612.28 1998.2M2386.5 806.222 2403.73 781.6 2427.12 750.8 2452.45 720 2479.66 689.2 2510.5 656.537 2541.5 625.528 2572.5 596.018 2605.58 566 2641.31 535.2 2679.21 504.4 2699.2 489 2720.06 473.6M3612.28 473.6 3642 487.785 3657.5 496.068 3673 504.938 3696.41 519.8 3718.34 535.2 3719.5 536.054 3738.08 550.6 3756.14 566 3772.83 581.4 3788.33 596.8 3802.82 612.2 3816.41 627.6 3829.24 643 3843.5 661.269 3863.61 689.2 3883.79 720 3893.19 735.4 3910.7 766.2 3921 785.706 3921 785.706" stroke="#A4DA9E" stroke-width="3.66667" stroke-linejoin="round" fill="none"/></g><g><path d="M2608.28 1998.2 2603.5 1994.45 2588.7 1982.8 2588 1982.24 2572.5 1969.77 2569.56 1967.4 2557 1957.08 2550.82 1952 2541.5 1944.18 2532.48 1936.6 2526 1931.04 2514.55 1921.2 2510.5 1917.65 2497.03 1905.8 2495 1903.97 2479.96 1890.4 2479.5 1889.98 2464 1875.6 2463.35 1875 2448.5 1860.81 2447.25 1859.6 2433 1845.54 2431.66 1844.2 2417.5 1829.73 2416.6 1828.8 2402.11 1813.4 2402 1813.28 2388.2 1798 2386.5 1796.07M3921 1811.95 3920.05 1813.4 3909.67 1828.8 3905.5 1834.83 3898.86 1844.2 3890 1856.39 3887.6 1859.6 3875.8 1875 3874.5 1876.66 3863.38 1890.4 3859 1895.7 3850.35 1905.8 3843.5 1913.63 3836.63 1921.2 3828 1930.49 3822.11 1936.6 3812.5 1946.34 3806.69 1952 3797 1961.22 3790.22 1967.4 3781.5 1975.18 3772.55 1982.8 3766 1988.26 3753.47 1998.2M2386.5 675.733 2388.2 673.8 2402 658.517 2402.11 658.4 2416.6 643 2417.5 642.072 2431.66 627.6 2433 626.26 2447.25 612.2 2448.5 610.992 2463.35 596.8 2464 596.198 2479.5 581.823 2479.96 581.4 2495 567.828 2497.03 566 2510.5 554.153 2514.55 550.6 2526 540.761 2532.48 535.2 2541.5 527.624 2550.82 519.8 2557 514.719 2569.56 504.4 2572.5 502.031 2588 489.564 2588.7 489 2603.5 477.352 2608.28 473.6M3753.47 473.6 3766 483.541 3772.55 489 3781.5 496.62 3790.22 504.4 3797 510.576 3806.69 519.8 3812.5 525.456 3822.11 535.2 3828 541.307 3836.63 550.6 3843.5 558.175 3850.35 566 3859 576.105 3863.38 581.4 3874.5 595.144 3875.8 596.8 3887.6 612.2 3890 615.415 3898.86 627.6 3905.5 636.966 3909.67 643 3920.05 658.4 3921 659.85" stroke="#C1E6BA" stroke-width="3.66667" stroke-linejoin="round" fill="none"/></g><g><path d="M2499.72 1998.2 2495 1994.47 2480.26 1982.8 2479.5 1982.19 2464 1969.61 2461.29 1967.4 2448.5 1956.74 2442.86 1952 2433 1943.54 2424.99 1936.6 2417.5 1929.96 2407.73 1921.2 2402 1915.94 2391.11 1905.8 2386.5 1901.41M3921 1914.82 3916.02 1921.2 3905.5 1934.39 3903.69 1936.6 3890.81 1952 3890 1952.95 3877.31 1967.4 3874.5 1970.53 3863.16 1982.8 3859 1987.21 3848.28 1998.2M2386.5 570.394 2391.11 566 2402 555.861 2407.73 550.6 2417.5 541.839 2424.99 535.2 2433 528.259 2442.86 519.8 2448.5 515.06 2461.29 504.4 2464 502.189 2479.5 489.611 2480.26 489 2495 477.326 2499.72 473.6M3848.28 473.6 3859 484.589 3863.16 489 3874.5 501.266 3877.31 504.4 3890 518.85 3890.81 519.8 3903.69 535.2 3905.5 537.414 3916.02 550.6 3921 556.981" stroke="#D8F0D2" stroke-width="3.66667" stroke-linejoin="round" fill="none"/></g><g><path d="M2393.65 1998.2 2386.5 1992.22M2386.5 479.577 2393.65 473.6" stroke="#EAF7E6" stroke-width="3.66667" stroke-linejoin="round" fill="none"/></g><g clip-path="url(#clip2)"><path d="" stroke="#F7FCF5" stroke-width="3.66667" stroke-linejoin="round" fill="none"/></g><text fill="#FFFFFF" font-family="Ericsson Hilda Light,Ericsson Hilda Light_MSFontService,sans-serif" font-weight="300" font-size="367" transform="matrix(1 0 0 1 2777.08 1278)">MLR</text><text fill="#FFFFFF" font-family="Ericsson Hilda,Ericsson Hilda_MSFontService,sans-serif" font-weight="400" font-size="110" transform="matrix(1 0 0 1 2804.8 1413)">Machine Learning </text><text fill="#FFFFFF" font-family="Ericsson Hilda,Ericsson Hilda_MSFontService,sans-serif" font-weight="400" font-size="110" transform="matrix(1 0 0 1 2804.8 1545)">&amp;  Reasoning</text></g></svg>