<svg width="3507" height="2041" xmlns="http://www.w3.org/2000/svg" xmlns:xlink="http://www.w3.org/1999/xlink" xml:space="preserve" overflow="hidden"><g transform="translate(-303 -200)"><path d="M2496.5 688.5 2496.5 734.08 3547 734.08 3547 779.659" stroke="#96A6B4" stroke-width="6.875" stroke-miterlimit="8" fill="none" fill-rule="evenodd"/><path d="M2496.5 688.5 2496.5 734.08 3021.75 734.08 3021.75 779.659" stroke="#96A6B4" stroke-width="6.875" stroke-miterlimit="8" fill="none" fill-rule="evenodd"/><path d="M2496.5 996.5 2496.5 2051.34 2696.18 2051.34" stroke="#BCC5CD" stroke-width="6.875" stroke-miterlimit="8" fill="none" fill-rule="evenodd"/><path d="M2496.5 996.5 2496.5 1743.14 2696.18 1743.14" stroke="#BCC5CD" stroke-width="6.875" stroke-miterlimit="8" fill="none" fill-rule="evenodd"/><path d="M2496.5 996.5 2496.5 1434.93 2696.18 1434.93" stroke="#BCC5CD" stroke-width="6.875" stroke-miterlimit="8" fill="none" fill-rule="evenodd"/><path d="M2496.5 996.5 2496.5 1126.73 2696.18 1126.73" stroke="#BCC5CD" stroke-width="6.875" stroke-miterlimit="8" fill="none" fill-rule="evenodd"/><path d="M2497 688.5 2497 779.659" stroke="#96A6B4" stroke-width="6.875" stroke-miterlimit="8" fill="none" fill-rule="evenodd"/><path d="M1971.5 996.5 1971.5 1743.14 2171.18 1743.14" stroke="#BCC5CD" stroke-width="6.875" stroke-miterlimit="8" fill="none" fill-rule="evenodd"/><path d="M1971.5 996.5 1971.5 1434.93 2171.18 1434.93" stroke="#BCC5CD" stroke-width="6.875" stroke-miterlimit="8" fill="none" fill-rule="evenodd"/><path d="M1971.5 996.5 1971.5 1126.73 2171.18 1126.73" stroke="#BCC5CD" stroke-width="6.875" stroke-miterlimit="8" fill="none" fill-rule="evenodd"/><path d="M2496.75 688.5 2496.75 734.08 1971.5 734.08 1971.5 779.659" stroke="#96A6B4" stroke-width="6.875" stroke-miterlimit="8" fill="none" fill-rule="evenodd"/><path d="M1446.5 996.5 1446.5 1743.14 1646.18 1743.14" stroke="#BCC5CD" stroke-width="6.875" stroke-miterlimit="8" fill="none" fill-rule="evenodd"/><path d="M1446.5 996.5 1446.5 1434.93 1646.18 1434.93" stroke="#BCC5CD" stroke-width="6.875" stroke-miterlimit="8" fill="none" fill-rule="evenodd"/><path d="M1446.5 996.5 1446.5 1126.73 1646.18 1126.73" stroke="#BCC5CD" stroke-width="6.875" stroke-miterlimit="8" fill="none" fill-rule="evenodd"/><path d="M2497 688.5 2497 734.08 1446.5 734.08 1446.5 779.659" stroke="#96A6B4" stroke-width="6.875" stroke-miterlimit="8" fill="none" fill-rule="evenodd"/><path d="M1531.5 380.5 1531.5 426.08 2496.37 426.08 2496.37 471.659" stroke="#5C7D95" stroke-width="6.875" stroke-miterlimit="8" fill="none" fill-rule="evenodd"/><path d="M622.5 732.5 622.5 1170.93 838.757 1170.93" stroke="#96A6B4" stroke-width="6.875" stroke-miterlimit="8" fill="none" fill-rule="evenodd"/><path d="M622.5 732.5 622.5 862.727 838.757 862.727" stroke="#96A6B4" stroke-width="6.875" stroke-miterlimit="8" fill="none" fill-rule="evenodd"/><path d="M1532.12 380.5 1532.12 426.08 622.5 426.08 622.5 471.659" stroke="#5C7D95" stroke-width="6.875" stroke-miterlimit="8" fill="none" fill-rule="evenodd"/><path d="M1441.38 227.464C1501.41 226.179 1562.59 226.179 1622.62 227.464" stroke="#125675" stroke-width="6.875" stroke-miterlimit="8" fill="none" fill-rule="evenodd"/><path d="M1622.62 379.536C1562.59 380.821 1501.41 380.821 1441.38 379.536" stroke="#125675" stroke-width="6.875" stroke-miterlimit="8" fill="none" fill-rule="evenodd"/><text font-family="Aptos,Aptos_MSFontService,sans-serif" font-weight="700" font-size="83" transform="matrix(1 0 0 1 699.114 325)">Deep</text><text font-family="Aptos,Aptos_MSFontService,sans-serif" font-weight="700" font-size="83" transform="matrix(1 0 0 1 897.573 325)">-</text><text font-family="Aptos,Aptos_MSFontService,sans-serif" font-weight="700" font-size="83" transform="matrix(1 0 0 1 925.646 325)">Learning Self</text><text font-family="Aptos,Aptos_MSFontService,sans-serif" font-weight="700" font-size="83" transform="matrix(1 0 0 1 1413.89 325)">-</text><text font-family="Aptos,Aptos_MSFontService,sans-serif" font-weight="700" font-size="83" transform="matrix(1 0 0 1 1441.96 325)">Admitted Technical Debt</text><path d="M519.41 515.916C569.138 461.748 655.383 456.376 712.042 503.919 716.492 507.654 720.684 511.661 724.591 515.916" stroke="#125675" stroke-width="6.875" stroke-miterlimit="8" fill="none" fill-rule="evenodd"/><path d="M724.59 688.084C674.862 742.252 588.617 747.624 531.958 700.081 527.508 696.346 523.316 692.339 519.409 688.084" stroke="#125675" stroke-width="6.875" stroke-miterlimit="8" fill="none" fill-rule="evenodd"/><text font-family="Aptos,Aptos_MSFontService,sans-serif" font-weight="700" font-size="73" transform="matrix(1 0 0 1 379.301 621)">Infra Structure</text><path d="M837.884 862.258C876.402 816.354 944.839 810.367 990.742 848.884 995.581 852.944 1000.06 857.419 1004.12 862.258" stroke="#125675" stroke-width="6.875" stroke-miterlimit="8" fill="none" fill-rule="evenodd"/><path d="M1004.12 1001.74C965.598 1047.65 897.161 1053.63 851.258 1015.12 846.419 1011.06 841.944 1006.58 837.884 1001.74" stroke="#125675" stroke-width="6.875" stroke-miterlimit="8" fill="none" fill-rule="evenodd"/><text font-family="Aptos,Aptos_MSFontService,sans-serif" font-weight="400" font-size="60" transform="matrix(1 0 0 1 794.704 947)">Hardware</text><path d="M837.884 1170.26C876.402 1124.35 944.839 1118.37 990.742 1156.88 995.581 1160.94 1000.06 1165.42 1004.12 1170.26" stroke="#125675" stroke-width="6.875" stroke-miterlimit="8" fill="none" fill-rule="evenodd"/><path d="M1004.12 1309.74C965.598 1355.65 897.161 1361.63 851.258 1323.12 846.419 1319.06 841.944 1314.58 837.884 1309.74" stroke="#125675" stroke-width="6.875" stroke-miterlimit="8" fill="none" fill-rule="evenodd"/><text font-family="Aptos,Aptos_MSFontService,sans-serif" font-weight="400" font-size="60" transform="matrix(1 0 0 1 877.777 1255)">API</text><path d="M2413.88 510.258C2452.4 464.354 2520.84 458.367 2566.74 496.884 2571.58 500.944 2576.06 505.419 2580.12 510.258" stroke="#125675" stroke-width="6.875" stroke-miterlimit="8" fill="none" fill-rule="evenodd"/><path d="M2580.12 649.743C2541.6 695.646 2473.16 701.634 2427.26 663.116 2422.42 659.056 2417.94 654.581 2413.88 649.743" stroke="#125675" stroke-width="6.875" stroke-miterlimit="8" fill="none" fill-rule="evenodd"/><text font-family="Aptos,Aptos_MSFontService,sans-serif" font-weight="700" font-size="73" transform="matrix(1 0 0 1 2375.74 599)">DL </text><text font-family="Aptos,Aptos_MSFontService,sans-serif" font-weight="700" font-size="73" transform="matrix(1 0 0 1 2480.03 599)">–</text><text font-family="Aptos,Aptos_MSFontService,sans-serif" font-weight="700" font-size="73" transform="matrix(1 0 0 1 2528.66 599)">LC</text><path d="M1362.88 818.258C1401.4 772.354 1469.84 766.367 1515.74 804.884 1520.58 808.944 1525.06 813.419 1529.12 818.258" stroke="#125675" stroke-width="6.875" stroke-miterlimit="8" fill="none" fill-rule="evenodd"/><path d="M1529.12 957.742C1490.6 1003.65 1422.16 1009.63 1376.26 971.116 1371.42 967.056 1366.94 962.581 1362.88 957.742" stroke="#125675" stroke-width="6.875" stroke-miterlimit="8" fill="none" fill-rule="evenodd"/><text font-family="Aptos,Aptos_MSFontService,sans-serif" font-weight="400" font-size="60" transform="matrix(1 0 0 1 1384.24 903)">Data</text><path d="M1644.88 1126.26C1683.4 1080.35 1751.84 1074.37 1797.74 1112.88 1802.58 1116.94 1807.06 1121.42 1811.12 1126.26" stroke="#125675" stroke-width="6.875" stroke-miterlimit="8" fill="none" fill-rule="evenodd"/><path d="M1811.12 1265.74C1772.6 1311.65 1704.16 1317.63 1658.26 1279.12 1653.42 1275.06 1648.94 1270.58 1644.88 1265.74" stroke="#125675" stroke-width="6.875" stroke-miterlimit="8" fill="none" fill-rule="evenodd"/><text font-family="Aptos,Aptos_MSFontService,sans-serif" font-weight="400" font-size="60" transform="matrix(1 0 0 1 1660.54 1212)">Input</text><path d="M1644.88 1434.26C1683.4 1388.35 1751.84 1382.37 1797.74 1420.88 1802.58 1424.94 1807.06 1429.42 1811.12 1434.26" stroke="#125675" stroke-width="6.875" stroke-miterlimit="8" fill="none" fill-rule="evenodd"/><path d="M1811.12 1573.74C1772.6 1619.65 1704.16 1625.63 1658.26 1587.12 1653.42 1583.06 1648.94 1578.58 1644.88 1573.74" stroke="#125675" stroke-width="6.875" stroke-miterlimit="8" fill="none" fill-rule="evenodd"/><text font-family="Aptos,Aptos_MSFontService,sans-serif" font-weight="400" font-size="60" transform="matrix(1 0 0 1 1581.95 1520)">Embedding</text><path d="M1644.88 1743.26C1683.4 1697.35 1751.84 1691.37 1797.74 1729.88 1802.58 1733.94 1807.06 1738.42 1811.12 1743.26" stroke="#125675" stroke-width="6.875" stroke-miterlimit="8" fill="none" fill-rule="evenodd"/><path d="M1811.12 1882.74C1772.6 1928.65 1704.16 1934.63 1658.26 1896.12 1653.42 1892.06 1648.94 1887.58 1644.88 1882.74" stroke="#125675" stroke-width="6.875" stroke-miterlimit="8" fill="none" fill-rule="evenodd"/><text font-family="Aptos,Aptos_MSFontService,sans-serif" font-weight="400" font-size="60" transform="matrix(1 0 0 1 1666.4 1795)">Data </text><text font-family="Aptos,Aptos_MSFontService,sans-serif" font-weight="400" font-size="60" transform="matrix(1 0 0 1 1544.57 1861)">Preprocessing</text><path d="M1887.88 818.258C1926.4 772.354 1994.84 766.367 2040.74 804.884 2045.58 808.944 2050.06 813.419 2054.12 818.258" stroke="#125675" stroke-width="6.875" stroke-miterlimit="8" fill="none" fill-rule="evenodd"/><path d="M2054.12 957.742C2015.6 1003.65 1947.16 1009.63 1901.26 971.116 1896.42 967.056 1891.94 962.581 1887.88 957.742" stroke="#125675" stroke-width="6.875" stroke-miterlimit="8" fill="none" fill-rule="evenodd"/><text font-family="Aptos,Aptos_MSFontService,sans-serif" font-weight="400" font-size="60" transform="matrix(1 0 0 1 1890.66 903)">Model</text><path d="M2169.88 1126.26C2208.4 1080.35 2276.84 1074.37 2322.74 1112.88 2327.58 1116.94 2332.06 1121.42 2336.12 1126.26" stroke="#125675" stroke-width="6.875" stroke-miterlimit="8" fill="none" fill-rule="evenodd"/><path d="M2336.12 1265.74C2297.6 1311.65 2229.16 1317.63 2183.26 1279.12 2178.42 1275.06 2173.94 1270.58 2169.88 1265.74" stroke="#125675" stroke-width="6.875" stroke-miterlimit="8" fill="none" fill-rule="evenodd"/><text font-family="Aptos,Aptos_MSFontService,sans-serif" font-weight="400" font-size="60" transform="matrix(1 0 0 1 2058.34 1212)">Attention mask</text><path d="M2169.88 1434.26C2208.4 1388.35 2276.84 1382.37 2322.74 1420.88 2327.58 1424.94 2332.06 1429.42 2336.12 1434.26" stroke="#125675" stroke-width="6.875" stroke-miterlimit="8" fill="none" fill-rule="evenodd"/><path d="M2336.12 1573.74C2297.6 1619.65 2229.16 1625.63 2183.26 1587.12 2178.42 1583.06 2173.94 1578.58 2169.88 1573.74" stroke="#125675" stroke-width="6.875" stroke-miterlimit="8" fill="none" fill-rule="evenodd"/><text font-family="Aptos,Aptos_MSFontService,sans-serif" font-weight="400" font-size="60" transform="matrix(1 0 0 1 2079.31 1520)">Layers Issues</text><path d="M2169.88 1743.26C2208.4 1697.35 2276.84 1691.37 2322.74 1729.88 2327.58 1733.94 2332.06 1738.42 2336.12 1743.26" stroke="#125675" stroke-width="6.875" stroke-miterlimit="8" fill="none" fill-rule="evenodd"/><path d="M2336.12 1882.74C2297.6 1928.65 2229.16 1934.63 2183.26 1896.12 2178.42 1892.06 2173.94 1887.58 2169.88 1882.74" stroke="#125675" stroke-width="6.875" stroke-miterlimit="8" fill="none" fill-rule="evenodd"/><text font-family="Aptos,Aptos_MSFontService,sans-serif" font-weight="400" font-size="60" transform="matrix(1 0 0 1 2105.58 1828)">Parameters</text><path d="M2413.88 818.258C2452.4 772.354 2520.84 766.367 2566.74 804.884 2571.58 808.945 2576.06 813.419 2580.12 818.258" stroke="#125675" stroke-width="6.875" stroke-miterlimit="8" fill="none" fill-rule="evenodd"/><path d="M2580.12 957.743C2541.6 1003.65 2473.16 1009.63 2427.26 971.116 2422.42 967.056 2417.94 962.581 2413.88 957.743" stroke="#125675" stroke-width="6.875" stroke-miterlimit="8" fill="none" fill-rule="evenodd"/><text font-family="Aptos,Aptos_MSFontService,sans-serif" font-weight="400" font-size="60" transform="matrix(1 0 0 1 2396.72 903)">Training</text><path d="M2695.88 1126.26C2734.4 1080.35 2802.84 1074.37 2848.74 1112.88 2853.58 1116.94 2858.06 1121.42 2862.12 1126.26" stroke="#125675" stroke-width="6.875" stroke-miterlimit="8" fill="none" fill-rule="evenodd"/><path d="M2862.12 1265.74C2823.6 1311.65 2755.16 1317.63 2709.26 1279.12 2704.42 1275.06 2699.94 1270.58 2695.88 1265.74" stroke="#125675" stroke-width="6.875" stroke-miterlimit="8" fill="none" fill-rule="evenodd"/><text font-family="Aptos,Aptos_MSFontService,sans-serif" font-weight="400" font-size="60" transform="matrix(1 0 0 1 2598.04 1212)">Loss Function</text><path d="M2695.88 1434.26C2734.4 1388.35 2802.84 1382.37 2848.74 1420.88 2853.58 1424.94 2858.06 1429.42 2862.12 1434.26" stroke="#125675" stroke-width="6.875" stroke-miterlimit="8" fill="none" fill-rule="evenodd"/><path d="M2862.12 1573.74C2823.6 1619.65 2755.16 1625.63 2709.26 1587.12 2704.42 1583.06 2699.94 1578.58 2695.88 1573.74" stroke="#125675" stroke-width="6.875" stroke-miterlimit="8" fill="none" fill-rule="evenodd"/><text font-family="Aptos,Aptos_MSFontService,sans-serif" font-weight="400" font-size="60" transform="matrix(1 0 0 1 2651.13 1520)">Weighting</text><path d="M2695.88 1743.26C2734.4 1697.35 2802.84 1691.37 2848.74 1729.88 2853.58 1733.94 2858.06 1738.42 2862.12 1743.26" stroke="#125675" stroke-width="6.875" stroke-miterlimit="8" fill="none" fill-rule="evenodd"/><path d="M2862.12 1882.74C2823.6 1928.65 2755.16 1934.63 2709.26 1896.12 2704.42 1892.06 2699.94 1887.58 2695.88 1882.74" stroke="#125675" stroke-width="6.875" stroke-miterlimit="8" fill="none" fill-rule="evenodd"/><text font-family="Aptos,Aptos_MSFontService,sans-serif" font-weight="400" font-size="60" transform="matrix(1 0 0 1 2667.38 1795)">Learning </text><text font-family="Aptos,Aptos_MSFontService,sans-serif" font-weight="400" font-size="60" transform="matrix(1 0 0 1 2650.19 1861)">Strategies</text><path d="M2695.88 2051.26C2734.4 2005.35 2802.84 1999.37 2848.74 2037.88 2853.58 2041.94 2858.06 2046.42 2862.12 2051.26" stroke="#125675" stroke-width="6.875" stroke-miterlimit="8" fill="none" fill-rule="evenodd"/><path d="M2862.12 2190.74C2823.6 2236.65 2755.16 2242.63 2709.26 2204.12 2704.42 2200.06 2699.94 2195.58 2695.88 2190.74" stroke="#125675" stroke-width="6.875" stroke-miterlimit="8" fill="none" fill-rule="evenodd"/><text font-family="Aptos,Aptos_MSFontService,sans-serif" font-weight="400" font-size="60" transform="matrix(1 0 0 1 2611.45 2136)">Training logic</text><path d="M2938.88 818.258C2977.4 772.354 3045.84 766.367 3091.74 804.884 3096.58 808.944 3101.06 813.419 3105.12 818.258" stroke="#125675" stroke-width="6.875" stroke-miterlimit="8" fill="none" fill-rule="evenodd"/><path d="M3105.12 957.742C3066.6 1003.65 2998.16 1009.63 2952.26 971.116 2947.42 967.056 2942.94 962.581 2938.88 957.742" stroke="#125675" stroke-width="6.875" stroke-miterlimit="8" fill="none" fill-rule="evenodd"/><text font-family="Aptos,Aptos_MSFontService,sans-serif" font-weight="400" font-size="60" transform="matrix(1 0 0 1 2899.81 903)">Inference</text><path d="M3463.88 818.258C3502.4 772.354 3570.84 766.367 3616.74 804.884 3621.58 808.944 3626.06 813.419 3630.12 818.258" stroke="#125675" stroke-width="6.875" stroke-miterlimit="8" fill="none" fill-rule="evenodd"/><path d="M3630.12 957.742C3591.6 1003.65 3523.16 1009.63 3477.26 971.116 3472.42 967.056 3467.94 962.581 3463.88 957.742" stroke="#125675" stroke-width="6.875" stroke-miterlimit="8" fill="none" fill-rule="evenodd"/><text font-family="Aptos,Aptos_MSFontService,sans-serif" font-weight="400" font-size="60" transform="matrix(1 0 0 1 3442.82 903)">Pipeline</text></g></svg>