<svg width="1980" height="1980" xmlns="http://www.w3.org/2000/svg" xmlns:xlink="http://www.w3.org/1999/xlink" xml:space="preserve" overflow="hidden"><defs><clipPath id="clip0"><rect x="100" y="277" width="1980" height="1980"/></clipPath><clipPath id="clip1"><rect x="347" y="514" width="1535" height="1526"/></clipPath><clipPath id="clip2"><rect x="347" y="514" width="1535" height="1526"/></clipPath><clipPath id="clip3"><rect x="347" y="514" width="1535" height="1526"/></clipPath></defs><g clip-path="url(#clip0)" transform="translate(-100 -277)"><g clip-path="url(#clip1)"><path d="M370.366 272.417 373.613 410.936 378.221 569.825 382.829 698.123 388.973 836.52 395.117 948.724 401.261 1042.25 407.406 1121.85 415.085 1206.54 422.766 1278.64 430.446 1340.98 438.126 1395.57 445.806 1443.87 455.023 1495.03 464.239 1540.12 473.455 1580.17 482.671 1615.99 491.887 1648.23 502.639 1681.98 513.392 1712.16 524.144 1739.29 534.896 1763.79 545.649 1785.98 557.937 1808.86 570.227 1829.46 582.515 1848.03 594.803 1864.83 607.091 1880.06 620.914 1895.53 634.738 1909.44 648.561 1921.97 663.924 1934.45 679.283 1945.6 694.646 1955.57 711.541 1965.33 729.975 1974.71 748.404 1982.94 768.374 1990.71 789.879 1997.94 812.919 2004.55 837.495 2010.5 863.606 2015.78 892.793 2020.61 925.051 2024.88 960.379 2028.52 1000.31 2031.61 1047.93 2034.23 1104.77 2036.29 1175.42 2037.77 1272.19 2038.72 1435.02 2039.15 1882 2039.2 1882 2039.2" stroke="#2E7EBC" stroke-width="3.66667" stroke-linecap="square" stroke-linejoin="round" fill="none"/></g><g><path d="M347.5 2039.2 349.036 1540.9 350.572 1477.55 353.644 1410.14 356.716 1370.57 359.788 1343.58 362.861 1323.97 365.932 1309.26 369.005 1298.07 372.077 1289.55 375.149 1283.11 378.221 1278.36 381.293 1275 384.365 1272.8 387.437 1271.59 390.509 1271.23 395.117 1272.03 399.725 1274.18 404.333 1277.46 410.477 1283.28 418.158 1292.4 425.838 1303.14 436.59 1320.19 448.878 1341.75 465.775 1373.71 491.887 1425.68 541.04 1523.75 567.152 1573.38 590.192 1614.99 611.697 1651.74 631.667 1683.98 651.636 1714.35 671.606 1742.85 691.571 1769.5 711.541 1794.34 729.975 1815.71 748.404 1835.63 766.838 1854.15 785.273 1871.34 805.238 1888.52 825.207 1904.29 845.177 1918.71 865.146 1931.88 885.111 1943.86 906.616 1955.54 928.121 1966.03 949.626 1975.43 972.667 1984.38 995.707 1992.28 1020.28 1999.65 1046.39 2006.41 1074.05 2012.5 1103.23 2017.89 1135.48 2022.76 1169.28 2026.84 1207.68 2030.42 1250.69 2033.36 1299.84 2035.67 1359.75 2037.4 1436.55 2038.53 1551.75 2039.1 1868.18 2039.2 1882 2039.2 1882 2039.2" stroke="#3C8CC3" stroke-width="3.66667" stroke-linecap="square" stroke-linejoin="round" fill="none"/></g><g><path d="M347.5 2039.2 350.572 2010.94 356.716 1967.85 364.397 1922.15 373.613 1874.48 382.829 1832.6 392.045 1795.43 401.261 1762.3 410.477 1732.73 419.694 1706.36 428.91 1682.9 438.126 1662.09 447.342 1643.73 456.559 1627.62 465.775 1613.59 474.991 1601.51 484.207 1591.22 493.423 1582.59 502.639 1575.53 511.856 1569.91 521.072 1565.63 530.288 1562.6 539.505 1560.72 548.721 1559.93 557.937 1560.13 567.152 1561.25 577.904 1563.64 588.657 1567.08 600.945 1572.2 613.233 1578.43 627.06 1586.63 642.419 1597.01 659.313 1609.76 677.748 1624.95 699.253 1644 726.899 1669.97 768.374 1710.58 832.889 1773.67 866.682 1805.2 895.864 1831.07 923.515 1854.2 949.626 1874.7 974.202 1892.71 998.778 1909.47 1023.35 1924.95 1047.93 1939.16 1072.51 1952.13 1097.09 1963.88 1121.66 1974.46 1146.24 1983.93 1170.81 1992.35 1196.93 2000.22 1223.04 2007.06 1250.69 2013.27 1279.87 2018.79 1310.6 2023.58 1344.39 2027.78 1381.25 2031.31 1421.19 2034.09 1467.27 2036.28 1522.57 2037.84 1594.76 2038.8 1711.5 2039.18 1882 2039.2 1882 2039.2" stroke="#4D99CA" stroke-width="3.66667" stroke-linecap="square" stroke-linejoin="round" fill="none"/></g><g><path d="M347.5 2039.2 350.572 2038.26 355.18 2035.39 361.324 2029.94 369.005 2021.32 378.221 2009.11 388.973 1993.01 402.798 1970.4 422.766 1935.63 473.455 1846.55 493.423 1813.87 510.32 1788.01 527.216 1764.03 542.577 1744 557.937 1725.75 571.763 1710.89 585.586 1697.53 599.409 1685.67 611.697 1676.39 623.985 1668.28 636.273 1661.33 648.561 1655.51 660.853 1650.79 673.141 1647.15 685.429 1644.54 697.717 1642.94 710.005 1642.3 723.828 1642.67 737.652 1644.15 751.48 1646.68 765.303 1650.18 780.662 1655.14 796.02 1661.13 812.919 1668.82 831.353 1678.38 851.318 1689.94 872.823 1703.59 897.399 1720.43 926.586 1741.74 964.985 1771.12 1069.44 1851.72 1103.23 1876.18 1133.95 1897.17 1161.6 1914.88 1189.25 1931.37 1215.36 1945.75 1241.47 1958.94 1266.05 1970.25 1290.63 1980.5 1315.2 1989.7 1341.31 1998.37 1367.43 2005.95 1393.54 2012.48 1421.19 2018.36 1450.37 2023.49 1481.1 2027.83 1513.35 2031.37 1548.68 2034.22 1588.62 2036.42 1636.23 2037.97 1697.68 2038.88 1799.06 2039.2 1882 2039.2 1882 2039.2" stroke="#5FA6D1" stroke-width="3.66667" stroke-linecap="square" stroke-linejoin="round" fill="none"/></g><g><path d="M347.5 2039.2 359.788 2038.71 370.54 2037.28 381.293 2034.84 392.045 2031.38 402.798 2026.92 415.085 2020.67 427.374 2013.27 441.198 2003.68 455.023 1992.89 470.383 1979.66 488.815 1962.36 510.32 1940.63 537.969 1911.06 627.06 1814.51 650.101 1791.57 671.606 1771.57 691.571 1754.43 710.005 1739.96 726.899 1727.93 743.798 1717.14 760.692 1707.63 776.056 1700.13 791.414 1693.75 806.773 1688.47 822.136 1684.31 837.495 1681.26 852.854 1679.3 868.217 1678.42 883.576 1678.6 898.939 1679.79 914.298 1681.98 931.192 1685.48 948.091 1690.06 964.985 1695.68 983.419 1702.9 1003.39 1711.91 1023.35 1722.04 1044.86 1734.05 1069.44 1748.98 1097.09 1767.03 1130.88 1790.41 1180.03 1825.84 1249.15 1875.55 1286.02 1900.75 1316.74 1920.56 1345.92 1938.14 1372.04 1952.73 1398.15 1966.14 1422.73 1977.64 1447.3 1988.02 1471.88 1997.27 1496.45 2005.41 1521.03 2012.47 1545.61 2018.49 1571.72 2023.81 1597.83 2028.12 1625.48 2031.69 1656.2 2034.61 1689.99 2036.77 1729.93 2038.24 1780.62 2039.02 1874.32 2039.2 1882 2039.2 1882 2039.2" stroke="#72B2D8" stroke-width="3.66667" stroke-linecap="square" stroke-linejoin="round" fill="none"/></g><g><path d="M347.5 2039.2 382.829 2038.72 404.333 2037.39 422.766 2035.29 441.198 2032.12 458.095 2028.21 474.991 2023.28 491.887 2017.31 508.784 2010.29 527.216 2001.47 545.649 1991.49 565.616 1979.43 585.586 1966.21 608.626 1949.66 633.202 1930.74 663.924 1905.71 708.47 1867.9 765.303 1819.88 796.02 1795.3 822.136 1775.72 845.177 1759.72 866.682 1746.03 886.647 1734.54 905.081 1725.05 923.515 1716.7 940.409 1710.11 957.308 1704.56 974.202 1700.08 991.101 1696.7 1008 1694.42 1024.89 1693.25 1041.79 1693.2 1058.69 1694.23 1075.58 1696.35 1092.48 1699.52 1109.37 1703.72 1126.27 1708.91 1144.7 1715.65 1163.14 1723.45 1183.11 1733.03 1204.61 1744.54 1227.65 1758.09 1252.23 1773.76 1279.87 1792.6 1313.67 1816.93 1367.43 1857.09 1422.73 1898.03 1456.52 1921.81 1485.7 1941.1 1511.81 1957.16 1536.39 1971.08 1559.43 1982.98 1582.47 1993.69 1603.98 2002.57 1625.48 2010.38 1646.98 2017.11 1668.49 2022.78 1689.99 2027.45 1713.04 2031.4 1737.61 2034.53 1763.73 2036.79 1792.91 2038.27 1829.77 2039.05 1882 2039.2 1882 2039.2" stroke="#89BEDC" stroke-width="3.66667" stroke-linecap="square" stroke-linejoin="round" fill="none"/></g><g><path d="M347.5 2039.2 421.23 2038.72 455.023 2037.45 482.671 2035.44 507.248 2032.7 530.288 2029.15 553.329 2024.56 574.833 2019.25 596.338 2012.91 617.843 2005.49 639.348 1996.99 660.853 1987.4 683.894 1975.98 706.934 1963.4 731.51 1948.82 757.621 1932.12 786.808 1912.24 822.136 1886.84 875.894 1846.7 932.728 1804.62 964.985 1781.99 992.636 1763.83 1017.21 1748.92 1038.72 1737 1058.69 1727 1078.65 1718.14 1097.09 1711.03 1115.52 1705.04 1132.41 1700.57 1149.31 1697.11 1166.21 1694.7 1183.11 1693.37 1200 1693.13 1216.89 1694 1233.79 1695.97 1250.69 1699.05 1267.59 1703.23 1284.48 1708.49 1301.38 1714.8 1319.81 1722.85 1338.24 1732.06 1356.68 1742.37 1376.65 1754.68 1398.15 1769.16 1421.19 1785.92 1447.3 1806.18 1478.02 1831.35 1527.18 1873.16 1577.86 1915.87 1607.05 1939.16 1631.63 1957.54 1653.13 1972.45 1673.1 1985.15 1693.07 1996.63 1711.5 2006.04 1729.93 2014.25 1746.83 2020.7 1763.73 2026.1 1780.62 2030.47 1797.52 2033.84 1815.95 2036.46 1835.92 2038.19 1858.96 2039.06 1882 2039.2 1882 2039.2" stroke="#9FCAE1" stroke-width="3.66667" stroke-linecap="square" stroke-linejoin="round" fill="none"/></g><g><path d="M347.5 2039.2 464.239 2038.71 507.248 2037.45 541.04 2035.44 570.227 2032.67 596.338 2029.18 620.914 2024.84 643.955 2019.73 665.46 2013.94 686.965 2007.08 708.47 1999.1 728.439 1990.63 748.404 1981.08 768.374 1970.44 788.343 1958.69 808.313 1945.82 829.813 1930.73 851.318 1914.39 874.359 1895.53 897.399 1875.36 921.98 1852.52 949.626 1825.37 980.348 1793.73 1018.75 1752.64 1117.06 1646.67 1144.7 1618.7 1169.28 1595.27 1190.78 1576.16 1210.75 1559.81 1229.19 1546.07 1246.08 1534.75 1261.44 1525.61 1276.8 1517.64 1290.63 1511.54 1304.45 1506.51 1318.27 1502.6 1330.56 1500.09 1342.85 1498.54 1355.14 1497.95 1367.43 1498.37 1379.72 1499.81 1392.01 1502.29 1404.29 1505.81 1416.58 1510.41 1428.87 1516.07 1441.16 1522.8 1453.44 1530.61 1467.27 1540.65 1481.1 1552.03 1494.92 1564.71 1510.28 1580.28 1525.64 1597.35 1542.54 1617.79 1559.43 1639.83 1577.86 1665.54 1597.83 1695.12 1620.87 1731.06 1651.6 1781.03 1716.11 1886.53 1737.61 1919.42 1756.05 1945.72 1771.4 1965.91 1785.23 1982.47 1797.52 1995.72 1809.81 2007.44 1820.56 2016.32 1831.31 2023.82 1840.53 2029.1 1849.74 2033.28 1858.96 2036.33 1868.18 2038.26 1877.39 2039.12 1882 2039.2 1882 2039.2" stroke="#B0D2E7" stroke-width="3.66667" stroke-linecap="square" stroke-linejoin="round" fill="none"/></g><g><path d="M347.5 2039.2 522.608 2038.71 574.833 2037.5 614.773 2035.58 648.561 2032.93 677.748 2029.65 703.859 2025.74 728.439 2021.07 751.48 2015.69 772.98 2009.69 794.485 2002.64 814.455 1995.09 834.424 1986.48 854.394 1976.75 874.359 1965.83 894.328 1953.67 912.763 1941.29 931.192 1927.78 951.162 1911.82 971.131 1894.46 991.101 1875.7 1011.07 1855.53 1031.04 1833.95 1052.54 1809.19 1074.05 1782.89 1097.09 1753.09 1121.66 1719.61 1147.77 1682.32 1178.49 1636.59 1216.89 1577.44 1302.91 1444.27 1329.03 1406.04 1350.53 1376.18 1370.5 1350.16 1387.39 1329.71 1402.76 1312.56 1418.12 1296.95 1431.94 1284.37 1444.23 1274.46 1456.52 1265.85 1467.27 1259.44 1478.02 1254.16 1488.77 1250.06 1497.99 1247.53 1507.21 1245.95 1516.42 1245.37 1525.64 1245.8 1534.85 1247.3 1544.07 1249.89 1553.29 1253.61 1562.51 1258.48 1571.72 1264.54 1580.94 1271.82 1590.15 1280.34 1599.37 1290.13 1610.12 1303.18 1620.87 1318 1631.63 1334.63 1642.38 1353.07 1654.67 1376.38 1666.95 1402.07 1679.24 1430.1 1693.07 1464.41 1706.89 1501.55 1722.25 1545.96 1739.15 1598.33 1757.58 1659.1 1780.62 1739.06 1832.85 1922.13 1845.14 1961.02 1855.89 1991.66 1863.57 2010.74 1869.71 2023.69 1874.32 2031.58 1878.93 2037.33 1882 2039.2 1882 2039.2" stroke="#C2D9EE" stroke-width="3.66667" stroke-linecap="square" stroke-linejoin="round" fill="none"/></g><g><path d="M347.5 2039.2 599.409 2038.71 662.389 2037.54 708.47 2035.72 746.869 2033.22 780.662 2030 809.848 2026.21 837.495 2021.58 862.071 2016.46 885.111 2010.66 906.616 2004.26 928.121 1996.8 948.091 1988.83 968.061 1979.76 986.49 1970.32 1004.92 1959.78 1023.35 1948.08 1041.79 1935.12 1060.22 1920.85 1078.65 1905.18 1097.09 1888.05 1113.98 1871.01 1132.41 1850.89 1150.85 1829.14 1169.28 1805.69 1187.71 1780.52 1206.15 1753.57 1224.58 1724.85 1243.01 1694.32 1262.98 1659.24 1282.94 1622.08 1304.45 1579.81 1325.95 1535.29 1348.99 1485.28 1373.57 1429.54 1402.76 1360.67 1439.62 1270.78 1510.28 1097.77 1534.85 1040.74 1554.82 997.042 1571.72 962.575 1585.55 936.501 1597.83 915.229 1610.12 896.021 1620.87 881.125 1630.09 869.937 1639.31 860.348 1646.98 853.684 1654.67 848.313 1662.35 844.33 1668.49 842.208 1674.64 841.085 1680.78 841.016 1686.92 842.056 1693.07 844.261 1699.21 847.689 1705.35 852.406 1711.5 858.478 1717.65 865.968 1723.79 874.951 1729.93 885.497 1737.61 901.003 1745.29 919.24 1752.97 940.373 1760.65 964.592 1768.33 992.083 1776.02 1023.07 1783.69 1057.76 1792.91 1104.66 1802.13 1157.75 1811.34 1217.57 1820.56 1284.77 1829.77 1360.11 1838.99 1444.53 1848.21 1539.28 1857.42 1646.15 1865.11 1746.56 1872.78 1860.82 1878.93 1968.55 1882 2039.2 1882 2039.2" stroke="#CEE0F2" stroke-width="6.875" stroke-linecap="square" stroke-linejoin="round" fill="none"/></g><g clip-path="url(#clip2)"><path d="M347.5 2039.2 703.859 2038.71 780.662 2037.52 834.424 2035.71 877.434 2033.29 914.298 2030.22 946.556 2026.53 975.738 2022.19 1001.85 2017.31 1026.43 2011.72 1049.47 2005.43 1070.97 1998.54 1090.94 1991.12 1110.91 1982.62 1129.34 1973.7 1147.77 1963.66 1166.21 1952.37 1183.11 1940.84 1200 1928.07 1216.89 1913.97 1233.79 1898.44 1249.15 1882.98 1264.52 1866.16 1279.87 1847.88 1295.23 1828.07 1310.6 1806.62 1325.95 1783.44 1341.31 1758.42 1356.68 1731.47 1372.04 1702.47 1387.39 1671.32 1402.76 1637.92 1418.12 1602.16 1433.48 1563.91 1448.84 1523.09 1464.2 1479.58 1481.1 1428.48 1497.99 1373.86 1514.89 1315.61 1531.78 1253.59 1548.68 1187.73 1565.58 1117.92 1584.01 1037.21 1602.44 951.708 1620.87 861.462 1640.84 758.456 1662.35 641.75 1685.39 510.744 1713.04 347.145 1725.42 272.417M1877.86 272.417 1878.93 354.244 1880.46 544.319 1882 2039.2 1882 2039.2" stroke="#D9E7F5" stroke-width="6.875" stroke-linecap="square" stroke-linejoin="round" fill="none"/></g><g clip-path="url(#clip3)"><path d="M347.5 2039.2 863.606 2038.7 955.773 2037.54 1018.75 2035.78 1067.9 2033.42 1109.37 2030.41 1144.7 2026.85 1175.42 2022.76 1203.07 2018.09 1229.19 2012.63 1252.23 2006.79 1273.73 2000.33 1293.7 1993.31 1312.13 1985.83 1330.56 1977.26 1347.46 1968.32 1364.35 1958.21 1379.72 1947.88 1395.08 1936.35 1410.44 1923.48 1424.26 1910.62 1438.09 1896.44 1451.91 1880.8 1465.73 1863.54 1479.56 1844.5 1491.85 1825.94 1504.14 1805.67 1516.42 1783.55 1528.71 1759.39 1541 1733 1553.29 1704.14 1565.58 1672.58 1577.86 1638.03 1590.15 1600.16 1602.44 1558.63 1614.73 1513.02 1625.48 1469.37 1636.23 1421.88 1646.98 1370.11 1657.74 1313.59 1668.49 1251.76 1679.24 1183.97 1689.99 1109.46 1700.75 1027.32 1711.5 936.478 1722.25 835.603 1731.47 739.935 1740.69 634.467 1749.9 517.661 1759.12 387.617 1766.49 272.417 1766.49 272.417" stroke="#E3EEF9" stroke-width="6.875" stroke-linecap="square" stroke-linejoin="round" fill="none"/></g><text fill="#FFFFFF" font-family="Ericsson Hilda Light,Ericsson Hilda Light_MSFontService,sans-serif" font-weight="300" font-size="367" transform="matrix(1 0 0 1 669.023 1382)">FAI</text><text fill="#FFFFFF" font-family="Ericsson Hilda,Ericsson Hilda_MSFontService,sans-serif" font-weight="400" font-size="110" transform="matrix(1 0 0 1 697.815 1524)">Foundational AI</text></g></svg>